G04*
G04 #@! TF.GenerationSoftware,Altium Limited,Altium Designer,20.0.12 (288)*
G04*
G04 Layer_Physical_Order=1*
G04 Layer_Color=255*
%FSLAX23Y23*%
%MOIN*%
G70*
G01*
G75*
%ADD14C,0.010*%
%ADD17R,0.411X0.378*%
%ADD18R,0.041X0.161*%
%ADD19R,0.031X0.049*%
%ADD20R,0.055X0.043*%
%ADD21R,0.043X0.055*%
%ADD22R,0.049X0.031*%
%ADD44C,0.015*%
%ADD45C,0.042*%
%ADD46R,0.042X0.042*%
%ADD47R,0.053X0.053*%
%ADD48C,0.053*%
%ADD49C,0.059*%
%ADD50R,0.059X0.059*%
%ADD51C,0.071*%
%ADD52R,0.071X0.071*%
%ADD53C,0.055*%
%ADD54R,0.055X0.055*%
%ADD55C,0.079*%
%ADD56R,0.079X0.079*%
%ADD57O,0.083X0.165*%
%ADD58O,0.157X0.079*%
%ADD59C,0.050*%
D14*
X1600Y5000D02*
X7600D01*
Y1000D02*
Y5000D01*
X1600Y1000D02*
X7600D01*
X1600D02*
Y5000D01*
D17*
X6280Y1418D02*
D03*
D18*
X6180Y1810D02*
D03*
X6380D02*
D03*
D19*
X3063Y4400D02*
D03*
X3000D02*
D03*
X5363D02*
D03*
X5300D02*
D03*
X5363Y3600D02*
D03*
X5300D02*
D03*
X6563D02*
D03*
X6500D02*
D03*
X4263Y4800D02*
D03*
X4200D02*
D03*
X3063Y4600D02*
D03*
X3000D02*
D03*
X3063Y4200D02*
D03*
X3000D02*
D03*
X3050Y4000D02*
D03*
X2987D02*
D03*
X3000Y4800D02*
D03*
X3063D02*
D03*
X3000Y3600D02*
D03*
X3063D02*
D03*
Y3800D02*
D03*
X3000D02*
D03*
X4263Y3600D02*
D03*
X4200D02*
D03*
X4263Y3800D02*
D03*
X4200D02*
D03*
X4263Y4200D02*
D03*
X4200D02*
D03*
X4263Y4600D02*
D03*
X4200D02*
D03*
X4263Y4400D02*
D03*
X4200D02*
D03*
X5363Y3800D02*
D03*
X5300D02*
D03*
X5363Y4000D02*
D03*
X5300D02*
D03*
X5363Y4200D02*
D03*
X5300D02*
D03*
X5363Y4600D02*
D03*
X5300D02*
D03*
X4263Y4000D02*
D03*
X4200D02*
D03*
X6500Y4800D02*
D03*
X6563D02*
D03*
X5300D02*
D03*
X5363D02*
D03*
X6500Y4600D02*
D03*
X6563D02*
D03*
X6500Y4400D02*
D03*
X6563D02*
D03*
Y4200D02*
D03*
X6500D02*
D03*
Y4000D02*
D03*
X6563D02*
D03*
X6500Y3800D02*
D03*
X6563D02*
D03*
D20*
X6900Y2140D02*
D03*
Y2081D02*
D03*
X2200Y3400D02*
D03*
Y3341D02*
D03*
X5720Y1550D02*
D03*
Y1490D02*
D03*
X2400Y3400D02*
D03*
Y3341D02*
D03*
D21*
X5200Y2900D02*
D03*
X5141D02*
D03*
X5200Y3100D02*
D03*
X5141D02*
D03*
D22*
X6200Y3500D02*
D03*
Y3437D02*
D03*
X7300Y3500D02*
D03*
Y3437D02*
D03*
X4000Y3500D02*
D03*
Y3437D02*
D03*
X5100Y3500D02*
D03*
Y3437D02*
D03*
D44*
X5294Y4494D02*
X5300Y4400D01*
X2500D02*
X3000D01*
X2500Y4500D02*
X2960D01*
X3000Y4540D01*
Y4600D01*
X6508Y3573D02*
X6514Y3567D01*
X6500Y3600D02*
X6508Y3592D01*
X6522Y3558D02*
X6602D01*
X6508Y3573D02*
Y3592D01*
X6514Y3567D02*
Y3567D01*
Y3567D02*
X6522Y3558D01*
X6602D02*
X6621Y3539D01*
X6556Y3913D02*
X6569D01*
X6682Y3800D01*
Y3502D02*
Y3800D01*
X6549Y3477D02*
X6658D01*
X6458Y3568D02*
X6549Y3477D01*
X6658D02*
X6682Y3502D01*
X3073Y4440D02*
X3120D01*
X3063Y4430D02*
X3073Y4440D01*
X5264Y3864D02*
X5300Y3900D01*
X5264Y3561D02*
Y3864D01*
Y3561D02*
X5320Y3504D01*
X5239Y3550D02*
Y3766D01*
Y3550D02*
X5318Y3471D01*
X5152Y3460D02*
Y3767D01*
X5177Y3793D01*
X5213D01*
X5239Y3766D01*
X5300Y3686D02*
X5306Y3680D01*
X5300Y3686D02*
Y3766D01*
X5195Y3750D02*
X5214Y3731D01*
X5100Y3500D02*
Y3900D01*
X5214Y3510D02*
Y3731D01*
Y3510D02*
X5280Y3444D01*
X3103Y4760D02*
X3160D01*
X3063Y4800D02*
X3103Y4760D01*
X3020Y4705D02*
X4160D01*
X3040Y4680D02*
X3805D01*
X3000Y4640D02*
X3040Y4680D01*
X3805D02*
X3884Y4600D01*
X3000Y4725D02*
X3020Y4705D01*
X4160D02*
X4200Y4745D01*
X6554Y3708D02*
X6563Y3717D01*
X6458Y3568D02*
Y3740D01*
X6230Y3968D02*
X6458Y3740D01*
X6563Y3717D02*
Y3800D01*
X6178Y3968D02*
X6230D01*
X6150Y3940D02*
X6178Y3968D01*
X6150Y3798D02*
Y3940D01*
X6597Y3634D02*
Y3850D01*
X6563Y3600D02*
X6597Y3634D01*
X6559Y3888D02*
X6597Y3850D01*
X6524Y3888D02*
X6559D01*
X5770Y1550D02*
X6040Y1280D01*
Y1209D02*
X6049Y1200D01*
X6040Y1209D02*
Y1280D01*
X6049Y1200D02*
X6551D01*
X5750Y1550D02*
X5770D01*
X6544Y1776D02*
X6560Y1760D01*
X6393Y1776D02*
X6544D01*
X6560Y1209D02*
Y1760D01*
X6551Y1200D02*
X6560Y1209D01*
X6380Y1789D02*
Y1810D01*
Y1789D02*
X6393Y1776D01*
X7100Y2140D02*
X7100Y2140D01*
X7297D02*
X7300Y2137D01*
X7100Y2140D02*
X7297D01*
X6840Y2090D02*
Y2357D01*
Y2090D02*
X6849Y2081D01*
X6900D01*
X5673Y3560D02*
X5676Y3557D01*
X5388Y3560D02*
X5673D01*
X5334Y3557D02*
X5385D01*
X5468Y3640D01*
X5680D01*
X5240Y4040D02*
X5260D01*
X5300Y4000D01*
X5255Y4115D02*
X5300Y4160D01*
X5120Y4115D02*
X5255D01*
X5300Y4160D02*
Y4200D01*
X5050Y4045D02*
X5120Y4115D01*
X3400Y1200D02*
X3560Y1040D01*
X5578D02*
X5769Y1231D01*
X3560Y1040D02*
X5578D01*
X6200Y3500D02*
Y3900D01*
X4000Y3437D02*
X5100D01*
X6200D02*
X6750D01*
X3700Y3900D02*
Y4500D01*
X4900Y3900D02*
Y4500D01*
X6000Y3900D02*
Y4500D01*
X7200Y3900D02*
Y4500D01*
X5200Y3100D02*
X5460D01*
X5475Y3085D01*
X5735D01*
X2200Y3341D02*
X2400D01*
X7300Y1640D02*
Y1940D01*
X2200Y3400D02*
X2300D01*
X4600Y3000D02*
X4648Y2952D01*
Y2548D02*
Y2952D01*
X4600Y2500D02*
X4648Y2548D01*
X4600Y2000D02*
X4648Y2048D01*
Y2452D01*
X4600Y2500D02*
X4648Y2452D01*
X6070Y2385D02*
X6280Y2175D01*
X5363Y3960D02*
Y4000D01*
Y3960D02*
X5423Y3900D01*
X5800D01*
X7300Y3500D02*
X7360D01*
X7400Y3540D01*
Y3900D01*
X6960Y1940D02*
X7300D01*
X6900Y2000D02*
X6960Y1940D01*
X6900Y2000D02*
Y2081D01*
X2500Y4600D02*
X2700Y4800D01*
X3000D01*
X2829Y4158D02*
X2987Y4000D01*
X2510Y4158D02*
X2829D01*
X2500Y4168D02*
X2510Y4158D01*
X2500Y4168D02*
Y4200D01*
X5248Y1440D02*
X5298Y1490D01*
X5248Y1236D02*
Y1440D01*
X2700Y4100D02*
X3000Y3800D01*
X2500Y4100D02*
X2700D01*
X4100Y1300D02*
X4350Y1550D01*
Y1750D01*
X4600Y2000D01*
X2500Y1200D02*
Y1440D01*
X2560Y1500D01*
X2800D01*
X5300Y4845D02*
X5360Y4905D01*
X6440D01*
X6500Y4845D01*
Y4800D02*
Y4845D01*
X5300Y4600D02*
Y4643D01*
X5320Y4663D01*
X6480D01*
X6500Y4643D01*
Y4600D02*
Y4643D01*
X6953Y3947D02*
X7000Y3900D01*
X6576Y3947D02*
X6953D01*
X6563Y3960D02*
X6576Y3947D01*
X6563Y3960D02*
Y4000D01*
X5300Y3591D02*
Y3600D01*
X4200Y3726D02*
Y3800D01*
X3400Y1400D02*
X4037Y2037D01*
Y3143D01*
X4047Y3153D01*
X4280D01*
X4350Y3083D01*
Y2850D02*
Y3083D01*
Y2850D02*
X4600Y2600D01*
X5363Y4071D02*
Y4200D01*
Y4071D02*
X5462Y3972D01*
X5828D01*
X5900Y3900D01*
X4200Y3600D02*
Y3632D01*
X4240Y3672D01*
X4248D01*
X5300Y3571D02*
X5314Y3557D01*
X5720Y1550D02*
X5750D01*
X5769Y1531D01*
Y1231D02*
Y1531D01*
X5141Y3069D02*
Y3100D01*
X5101Y3029D02*
X5141Y3069D01*
X5101Y2853D02*
Y3029D01*
Y2853D02*
X5190D01*
X5200Y2863D01*
X6280Y1418D02*
Y1604D01*
X5674Y1580D02*
X5698Y1604D01*
X5674Y1506D02*
Y1580D01*
Y1506D02*
X5690Y1490D01*
X5720D01*
X2000Y3500D02*
Y3688D01*
X2157Y3845D01*
X2220D01*
X2245Y3820D01*
Y3455D02*
Y3820D01*
Y3455D02*
X2300Y3400D01*
X2400D01*
X3900Y3560D02*
Y3900D01*
Y3560D02*
X3960Y3500D01*
X4000D01*
X2864Y3136D02*
X3400Y2600D01*
X2864Y3136D02*
Y3520D01*
X2534Y3850D02*
X2864Y3520D01*
X2480Y3850D02*
X2534D01*
X2331Y3999D02*
X2480Y3850D01*
X2331Y3999D02*
Y4469D01*
X2200Y4600D02*
X2331Y4469D01*
X1927Y4027D02*
X2200Y4300D01*
X1927Y2300D02*
Y4027D01*
X2200Y4200D02*
X2246Y4246D01*
Y4324D01*
X2220Y4350D02*
X2246Y4324D01*
X2155Y4350D02*
X2220D01*
X1884Y4079D02*
X2155Y4350D01*
X1884Y2200D02*
Y4079D01*
X1952Y3352D02*
X2000Y3400D01*
X1952Y3278D02*
Y3352D01*
Y3278D02*
X1980Y3250D01*
X2038D01*
X2950Y2338D01*
Y1650D02*
Y2338D01*
Y1650D02*
X3400Y1200D01*
X2116Y3984D02*
X2200Y3900D01*
X2116Y3984D02*
Y4102D01*
X2160Y4146D01*
X2240D01*
X2303Y4083D01*
Y3752D02*
Y4083D01*
Y3752D02*
X2826Y3229D01*
Y2607D02*
Y3229D01*
Y2607D02*
X3342Y2091D01*
Y1958D02*
Y2091D01*
Y1958D02*
X3400Y1900D01*
X5363Y3682D02*
X5377Y3696D01*
X5363Y3600D02*
Y3682D01*
X5280Y3444D02*
X5492D01*
X5774Y3162D01*
Y3060D02*
Y3162D01*
X5747Y3033D02*
X5774Y3060D01*
X5720Y3033D02*
X5747D01*
X5696Y3009D02*
X5720Y3033D01*
X5696Y2524D02*
Y3009D01*
Y2524D02*
X5735Y2485D01*
X4200Y4745D02*
Y4800D01*
X3000Y4725D02*
Y4800D01*
Y4600D02*
Y4640D01*
X3884Y4600D02*
X4200D01*
X3080Y4541D02*
X3137D01*
X3063Y4558D02*
X3080Y4541D01*
X3063Y4558D02*
Y4600D01*
X4263D02*
Y4604D01*
X5300Y4572D02*
Y4600D01*
X4872Y4597D02*
X4897Y4572D01*
X4538Y4597D02*
X4872D01*
X4498Y4557D02*
X4538Y4597D01*
X4210Y4557D02*
X4498D01*
X4200Y4567D02*
X4210Y4557D01*
X4200Y4567D02*
Y4600D01*
X5300Y4400D02*
Y4487D01*
X4778Y4547D02*
X5240D01*
X4753Y4572D02*
X4778Y4547D01*
X4561Y4572D02*
X4753D01*
X4488Y4500D02*
X4561Y4572D01*
X4240Y4500D02*
X4488D01*
X4200Y4460D02*
X4240Y4500D01*
X4200Y4400D02*
Y4460D01*
X4263Y3941D02*
X4304Y3900D01*
X4263Y3941D02*
Y4000D01*
X6563Y4800D02*
X7260D01*
X7300Y4760D01*
Y4500D02*
Y4760D01*
X6563Y4600D02*
X7210D01*
X7250Y4560D01*
Y4480D02*
Y4560D01*
Y4480D02*
X7278Y4452D01*
X7341D01*
X7369Y4480D01*
Y4500D02*
X7400D01*
X6500Y3800D02*
Y3853D01*
X6342Y4011D02*
X6500Y3853D01*
X6078Y4011D02*
X6342D01*
X6052Y3985D02*
X6078Y4011D01*
X6052Y3800D02*
Y3985D01*
X6008Y3756D02*
X6052Y3800D01*
X5310Y3756D02*
X6008D01*
X5300Y3766D02*
X5310Y3756D01*
X5300Y3766D02*
Y3800D01*
X6500Y3969D02*
Y4000D01*
Y3969D02*
X6556Y3913D01*
X5857Y3504D02*
X6150Y3798D01*
X5320Y3504D02*
X5857D01*
X5300Y3900D02*
Y4000D01*
X5363Y3800D02*
X5876D01*
X5948Y3872D01*
Y4200D01*
X5900Y4248D02*
X5948Y4200D01*
X5900Y4248D02*
Y4500D01*
X5363Y4400D02*
Y4469D01*
Y4600D02*
X5388Y4625D01*
X6109D01*
X6200Y4534D01*
Y4500D02*
Y4534D01*
X5363Y4800D02*
X5374Y4749D01*
X5851D01*
X6466Y3945D02*
X6524Y3888D01*
X6466Y3945D02*
Y4040D01*
X6495Y4069D01*
X6874D01*
X7000Y4195D01*
Y4500D01*
X6520Y4152D02*
X6848D01*
X6500Y4172D02*
X6520Y4152D01*
X6500Y4172D02*
Y4200D01*
X6563Y4400D02*
Y4423D01*
X6692Y4552D01*
X7020D01*
X7050Y4522D01*
Y4453D02*
Y4522D01*
Y4453D02*
X7152Y4351D01*
Y3880D02*
Y4351D01*
Y3880D02*
X7180Y3852D01*
X7290D01*
X7300Y3862D01*
Y3900D01*
X4263Y3600D02*
X4508D01*
X4748Y3840D01*
Y4070D01*
X4700Y4118D02*
X4748Y4070D01*
X4700Y4118D02*
Y4500D01*
X4574Y4450D02*
X4592Y4468D01*
X4574Y3870D02*
Y4450D01*
X4513Y3809D02*
X4574Y3870D01*
X4263Y3800D02*
Y3809D01*
X4526Y3961D02*
Y4141D01*
X4467Y4200D02*
X4526Y4141D01*
X4263Y4200D02*
X4467D01*
X4952Y3852D02*
X5000Y3900D01*
X4880Y3852D02*
X4952D01*
X4852Y3880D02*
X4880Y3852D01*
X4852Y3880D02*
Y4353D01*
X4752Y4453D02*
X4852Y4353D01*
X4752Y4453D02*
Y4520D01*
X4725Y4547D02*
X4752Y4520D01*
X4596Y4547D02*
X4725D01*
X4489Y4440D02*
X4596Y4547D01*
X4263Y4430D02*
X4489Y4440D01*
X4263Y4400D02*
Y4430D01*
Y4687D02*
Y4800D01*
X3063Y3600D02*
Y3691D01*
X3500Y4128D01*
Y4500D01*
X3553Y4547D02*
X3600Y4500D01*
X3447Y4547D02*
X3553D01*
X3217Y4317D02*
X3447Y4547D01*
X3217Y3939D02*
Y4317D01*
X3158Y3880D02*
X3217Y3939D01*
X3103Y3880D02*
X3158D01*
X3063Y3840D02*
X3103Y3880D01*
X3063Y3800D02*
Y3840D01*
X3050Y3900D02*
Y4000D01*
X3063Y4073D02*
X3171Y3965D01*
X3063Y4073D02*
Y4200D01*
X3800Y3900D02*
Y4218D01*
X3063Y4400D02*
Y4430D01*
X3723Y3570D02*
X3856Y3437D01*
X4000D01*
X5100D02*
X5129D01*
X5152Y3460D01*
X5318Y3471D02*
X5620D01*
X5654Y3437D01*
X2500Y4000D02*
X2660D01*
X3000Y3660D01*
Y3600D02*
Y3660D01*
X4240Y4074D02*
X4451D01*
X4200Y4034D02*
X4240Y4074D01*
X4200Y4000D02*
Y4034D01*
X2566Y4200D02*
X3000D01*
X2500Y4266D02*
X2566Y4200D01*
X2500Y4266D02*
Y4300D01*
X3000Y4200D02*
Y4240D01*
X3040Y4280D01*
X3128D01*
X3420Y4572D01*
X3572D01*
X3597Y4547D01*
X3725D01*
X3752Y4520D01*
Y4348D02*
Y4520D01*
Y4348D02*
X3800Y4300D01*
X4160D01*
X4200Y4260D01*
Y4200D02*
Y4260D01*
X5050Y3840D02*
Y4045D01*
X4744Y3534D02*
X5050Y3840D01*
X4192Y3534D02*
X4744D01*
X4141Y3585D02*
X4192Y3534D01*
X4141Y3585D02*
Y4100D01*
X4200Y4159D01*
Y4200D01*
X5300D02*
Y4240D01*
X5360Y4300D01*
X5486D01*
X5734Y4548D01*
X6022D01*
X6050Y4520D01*
Y4360D02*
Y4520D01*
Y4360D02*
X6105Y4305D01*
X6512D01*
X6563Y4254D01*
Y4200D02*
Y4254D01*
X3000Y4375D02*
Y4400D01*
Y4375D02*
X3040Y4335D01*
X3122D01*
X3404Y4617D01*
X3597D01*
X3642Y4572D01*
X3923D01*
X4095Y4400D01*
X4200D01*
X5294Y4494D02*
X5337Y4537D01*
X5687D01*
X5738Y4588D01*
X6084D01*
X6152Y4520D01*
Y4440D02*
Y4520D01*
Y4440D02*
X6192Y4400D01*
X6500D01*
X5300Y4800D02*
Y4835D01*
X5280Y4855D02*
X5300Y4835D01*
X4220Y4855D02*
X5280D01*
X4200Y4835D02*
X4220Y4855D01*
X4200Y4800D02*
Y4835D01*
X3700Y3900D02*
X3853Y3747D01*
Y3550D02*
Y3747D01*
X5609Y3396D02*
X5718D01*
X5834Y3280D01*
Y2384D02*
Y3280D01*
X5735Y2285D02*
X5834Y2384D01*
X5735Y2685D02*
X5799Y2749D01*
Y3224D01*
X5791Y3232D02*
X5799Y3224D01*
X3400Y2000D02*
X3663Y2263D01*
Y3626D01*
X2773Y2582D02*
X3255Y2100D01*
X2773Y2582D02*
Y3238D01*
X2274Y3737D02*
X2773Y3238D01*
X2274Y3737D02*
Y4026D01*
X2200Y4100D02*
X2274Y4026D01*
X3400Y2400D02*
X3453Y2453D01*
Y3279D01*
X3254Y3478D02*
X3453Y3279D01*
X2986Y3478D02*
X3254D01*
X2510Y3954D02*
X2986Y3478D01*
X2455Y3954D02*
X2510D01*
X2407Y4002D02*
X2455Y3954D01*
X2407Y4002D02*
Y4578D01*
X2297Y4688D02*
X2407Y4578D01*
X2200Y4688D02*
X2297D01*
X2154Y4642D02*
X2200Y4688D01*
X2154Y4446D02*
Y4642D01*
Y4446D02*
X2200Y4400D01*
X6031Y2824D02*
X6070Y2785D01*
X6031Y2824D02*
Y2946D01*
X6070Y2985D01*
X6031Y2624D02*
X6070Y2585D01*
X6031Y2624D02*
Y2746D01*
X6070Y2785D01*
Y2585D02*
X6109Y2546D01*
Y2424D02*
Y2546D01*
X6070Y2385D02*
X6109Y2424D01*
X5141Y2900D02*
Y3000D01*
X5200Y3059D01*
Y3100D01*
X6900Y2140D02*
X7100D01*
X2000Y3300D02*
X2041Y3341D01*
X2154Y3754D02*
X2200Y3800D01*
X2154Y3357D02*
Y3754D01*
Y3357D02*
X2170Y3341D01*
X6162Y3035D02*
X6840Y2357D01*
X6040Y3035D02*
X6162D01*
X6006Y3001D02*
X6040Y3035D01*
X6006Y2239D02*
Y3001D01*
X6180Y1810D02*
Y2065D01*
X6072Y2173D02*
X6180Y2065D01*
X5240Y2173D02*
X6072D01*
X5200Y2213D02*
X5240Y2173D01*
X5141Y3100D02*
Y3222D01*
X2000Y1300D02*
X2100Y1200D01*
X2000Y1300D02*
Y3200D01*
X4552Y2552D02*
X4600Y2600D01*
X4552Y2348D02*
Y2552D01*
Y2348D02*
X4600Y2300D01*
X7369Y4480D02*
Y4500D01*
X4263Y3809D02*
X4513D01*
X4263Y4604D02*
X4368D01*
X5654Y3437D02*
X6200D01*
X6750D02*
X7300D01*
X5314Y3557D02*
X5334D01*
X5300Y3571D02*
Y3591D01*
X5240Y4547D02*
X5294Y4494D01*
X5300Y4487D01*
X4897Y4572D02*
X5300D01*
Y4835D02*
Y4845D01*
X2041Y3341D02*
X2170D01*
X2200D01*
X5298Y1490D02*
X5690D01*
X5698Y1604D02*
X6280D01*
Y2175D01*
X6006Y2239D02*
X6072Y2173D01*
X5200Y2213D02*
Y2863D01*
Y2900D01*
D45*
X5735Y2285D02*
D03*
Y2385D02*
D03*
Y2485D02*
D03*
Y2585D02*
D03*
Y2685D02*
D03*
Y2785D02*
D03*
Y2885D02*
D03*
Y2985D02*
D03*
Y3085D02*
D03*
X6070D02*
D03*
Y2985D02*
D03*
Y2885D02*
D03*
Y2785D02*
D03*
Y2685D02*
D03*
Y2585D02*
D03*
Y2485D02*
D03*
Y2385D02*
D03*
D46*
Y2285D02*
D03*
D47*
X7300Y1940D02*
D03*
D48*
Y2137D02*
D03*
D49*
X2700Y2800D02*
D03*
X4600Y2200D02*
D03*
Y2100D02*
D03*
Y2000D02*
D03*
Y2500D02*
D03*
Y2600D02*
D03*
Y2700D02*
D03*
Y2800D02*
D03*
Y2900D02*
D03*
X2800Y1600D02*
D03*
Y1700D02*
D03*
Y1800D02*
D03*
X4600Y1700D02*
D03*
Y1600D02*
D03*
Y1500D02*
D03*
X3900Y4500D02*
D03*
X3800D02*
D03*
X3700D02*
D03*
X3600D02*
D03*
X3500D02*
D03*
X3900Y3900D02*
D03*
X3800D02*
D03*
X3700D02*
D03*
X3600D02*
D03*
X5100Y4500D02*
D03*
X5000D02*
D03*
X4900D02*
D03*
X4800D02*
D03*
X4700D02*
D03*
X5100Y3900D02*
D03*
X5000D02*
D03*
X4900D02*
D03*
X4800D02*
D03*
X7100D02*
D03*
X7200D02*
D03*
X7300D02*
D03*
X7400D02*
D03*
X7000Y4500D02*
D03*
X7100D02*
D03*
X7200D02*
D03*
X7300D02*
D03*
X7400D02*
D03*
X5900Y3900D02*
D03*
X6000D02*
D03*
X6100D02*
D03*
X6200D02*
D03*
X5800Y4500D02*
D03*
X5900D02*
D03*
X6000D02*
D03*
X6100D02*
D03*
X6200D02*
D03*
X2000Y3500D02*
D03*
Y3400D02*
D03*
Y3300D02*
D03*
D50*
X2700Y2700D02*
D03*
X4600Y2300D02*
D03*
Y3000D02*
D03*
X2800Y1500D02*
D03*
X4600Y1800D02*
D03*
X3500Y3900D02*
D03*
X4700D02*
D03*
X7000D02*
D03*
X5800D02*
D03*
X2000Y3200D02*
D03*
D51*
X4100Y2200D02*
D03*
Y2100D02*
D03*
Y2300D02*
D03*
Y2400D02*
D03*
Y2500D02*
D03*
Y2600D02*
D03*
Y2700D02*
D03*
Y2800D02*
D03*
Y2900D02*
D03*
Y3000D02*
D03*
Y2000D02*
D03*
Y1900D02*
D03*
Y1800D02*
D03*
Y1700D02*
D03*
Y1600D02*
D03*
Y1500D02*
D03*
Y1400D02*
D03*
Y1300D02*
D03*
Y1200D02*
D03*
X3400Y2200D02*
D03*
Y2100D02*
D03*
Y2300D02*
D03*
Y2400D02*
D03*
Y2500D02*
D03*
Y2600D02*
D03*
Y2700D02*
D03*
Y2800D02*
D03*
Y2900D02*
D03*
Y3000D02*
D03*
Y2000D02*
D03*
Y1900D02*
D03*
Y1800D02*
D03*
Y1700D02*
D03*
Y1600D02*
D03*
Y1500D02*
D03*
Y1400D02*
D03*
Y1300D02*
D03*
Y1200D02*
D03*
D52*
X4100Y3100D02*
D03*
X3400D02*
D03*
D53*
X2500Y1200D02*
D03*
X2100D02*
D03*
X2500Y3800D02*
D03*
Y3900D02*
D03*
Y4000D02*
D03*
Y4100D02*
D03*
Y4200D02*
D03*
Y4300D02*
D03*
Y4400D02*
D03*
Y4500D02*
D03*
Y4600D02*
D03*
X2200Y3800D02*
D03*
Y3900D02*
D03*
Y4000D02*
D03*
Y4100D02*
D03*
Y4200D02*
D03*
Y4300D02*
D03*
Y4400D02*
D03*
Y4500D02*
D03*
D54*
Y4600D02*
D03*
D55*
X6888Y1640D02*
D03*
D56*
X7300D02*
D03*
D57*
X5157Y1445D02*
D03*
D58*
X5248Y1236D02*
D03*
X5393Y1335D02*
D03*
D59*
X6621Y3539D02*
D03*
X3120Y4440D02*
D03*
X5306Y3680D02*
D03*
X5195Y3750D02*
D03*
X3160Y4760D02*
D03*
X6554Y3708D02*
D03*
X5676Y3557D02*
D03*
X5680Y3640D02*
D03*
X5240Y4040D02*
D03*
X4200Y3726D02*
D03*
X1927Y2300D02*
D03*
X1884Y2200D02*
D03*
X5377Y3696D02*
D03*
X3137Y4541D02*
D03*
X4368Y4604D02*
D03*
X4304Y3900D02*
D03*
X5363Y4469D02*
D03*
X5851Y4749D02*
D03*
X6848Y4152D02*
D03*
X4592Y4468D02*
D03*
X4526Y3961D02*
D03*
X4263Y4687D02*
D03*
X3050Y3900D02*
D03*
X3171Y3965D02*
D03*
X3800Y4218D02*
D03*
X3723Y3570D02*
D03*
X4248Y3672D02*
D03*
X4451Y4074D02*
D03*
X3853Y3550D02*
D03*
X5609Y3396D02*
D03*
X5791Y3232D02*
D03*
X3663Y3626D02*
D03*
X3255Y2100D02*
D03*
X5141Y3222D02*
D03*
M02*
