G04*
G04 #@! TF.GenerationSoftware,Altium Limited,Altium Designer,20.0.12 (288)*
G04*
G04 Layer_Color=32896*
%FSLAX23Y23*%
%MOIN*%
G70*
G01*
G75*
%ADD14C,0.010*%
%ADD60C,0.014*%
D14*
X1600Y5000D02*
X7600D01*
Y1000D02*
Y5000D01*
X1600Y1000D02*
X7600D01*
X1600D02*
Y5000D01*
D60*
X7346Y2974D02*
Y3014D01*
X7326Y3034D01*
X7306Y3014D01*
Y2974D01*
Y3004D01*
X7346D01*
X7286Y2974D02*
X7266D01*
X7276D01*
Y3034D01*
X7286D01*
X7206Y2974D02*
X7226D01*
X7236Y2984D01*
Y3004D01*
X7226Y3014D01*
X7206D01*
X7196Y3004D01*
Y2994D01*
X7236D01*
X7176Y3014D02*
X7136Y2974D01*
X7156Y2994D01*
X7136Y3014D01*
X7176Y2974D01*
X7106Y3014D02*
X7086D01*
X7076Y3004D01*
Y2974D01*
X7106D01*
X7116Y2984D01*
X7106Y2994D01*
X7076D01*
X7056Y2974D02*
Y3014D01*
X7026D01*
X7016Y3004D01*
Y2974D01*
X6956Y3034D02*
Y2974D01*
X6986D01*
X6996Y2984D01*
Y3004D01*
X6986Y3014D01*
X6956D01*
X6906Y2974D02*
X6926D01*
X6936Y2984D01*
Y3004D01*
X6926Y3014D01*
X6906D01*
X6896Y3004D01*
Y2994D01*
X6936D01*
X6876Y3014D02*
Y2974D01*
Y2994D01*
X6866Y3004D01*
X6856Y3014D01*
X6846D01*
X6756Y3034D02*
Y2974D01*
Y2994D01*
X6716Y3034D01*
X6746Y3004D01*
X6716Y2974D01*
X6696Y3014D02*
Y2974D01*
Y2994D01*
X6686Y3004D01*
X6676Y3014D01*
X6666D01*
X6626Y2974D02*
X6606D01*
X6596Y2984D01*
Y3004D01*
X6606Y3014D01*
X6626D01*
X6636Y3004D01*
Y2984D01*
X6626Y2974D01*
X6576D02*
Y3014D01*
X6566D01*
X6556Y3004D01*
Y2974D01*
Y3004D01*
X6546Y3014D01*
X6536Y3004D01*
Y2974D01*
M02*
