G04*
G04 #@! TF.GenerationSoftware,Altium Limited,Altium Designer,20.0.12 (288)*
G04*
G04 Layer_Physical_Order=2*
G04 Layer_Color=16711680*
%FSLAX23Y23*%
%MOIN*%
G70*
G01*
G75*
%ADD14C,0.010*%
%ADD44C,0.015*%
%ADD45C,0.042*%
%ADD46R,0.042X0.042*%
%ADD47R,0.053X0.053*%
%ADD48C,0.053*%
%ADD49C,0.059*%
%ADD50R,0.059X0.059*%
%ADD51C,0.071*%
%ADD52R,0.071X0.071*%
%ADD53C,0.055*%
%ADD54R,0.055X0.055*%
%ADD55C,0.079*%
%ADD56R,0.079X0.079*%
%ADD57O,0.083X0.165*%
%ADD58O,0.157X0.079*%
%ADD59C,0.050*%
D14*
X1600Y5000D02*
X7600D01*
Y1000D02*
Y5000D01*
X1600Y1000D02*
X7600D01*
X1600D02*
Y5000D01*
D44*
X5781Y3539D02*
X6621D01*
X5680Y3640D02*
X5781Y3539D01*
X6609Y3647D02*
X6682Y3573D01*
Y3502D02*
Y3573D01*
X6599Y3419D02*
X6682Y3502D01*
X5978Y3419D02*
X6599D01*
X6253Y3647D02*
X6609D01*
X3342Y4218D02*
X3800D01*
X3120Y4440D02*
X3342Y4218D01*
X5306Y3680D02*
Y3819D01*
X5320Y3833D01*
X5145Y4008D02*
X5320Y3833D01*
X5050Y3750D02*
X5195D01*
X3540Y4760D02*
X3800Y4500D01*
X3160Y4760D02*
X3540D01*
X6554Y3708D02*
Y4176D01*
X6661Y4283D01*
X6000Y3900D02*
X6253Y3647D01*
X6070Y2385D02*
X6255Y2200D01*
X7237D02*
X7300Y2137D01*
X6255Y2200D02*
X7237D01*
X4363Y3557D02*
X5676D01*
X4248Y3672D02*
X4363Y3557D01*
X3874Y3529D02*
X5476D01*
X5609Y3396D01*
X2200Y3500D02*
X4863D01*
X5141Y3222D01*
X3853Y3550D02*
X3874Y3529D01*
X4453Y4072D02*
X4485Y4040D01*
X5240D01*
X4100Y2800D02*
X4600D01*
X4100Y2700D02*
X4600D01*
X4100Y2200D02*
X4600D01*
X4100Y2100D02*
X4600D01*
X4100Y1800D02*
X4600D01*
X4100Y1700D02*
X4600D01*
X4100Y1600D02*
X4600D01*
X4100Y1500D02*
X4600D01*
X2800D02*
X3400D01*
X2800Y1600D02*
X3400D01*
X2800Y1700D02*
X3400D01*
X2800Y1800D02*
X3400D01*
X2700Y2700D02*
X3400D01*
X2700Y2800D02*
X3400D01*
Y1300D02*
X4100D01*
Y2300D02*
X4149Y2251D01*
X4688D01*
X4772Y2335D01*
X6020D01*
X6070Y2285D01*
X4100Y2400D02*
X5688D01*
X5712Y2424D01*
X6009D01*
X6070Y2485D01*
X2100Y1200D02*
X2300Y1400D01*
X3400D01*
X6583Y1335D02*
X6888Y1640D01*
X5393Y1335D02*
X6583D01*
X2500Y4200D02*
X2628Y4072D01*
X2874Y3726D02*
X4200D01*
X4047Y2653D02*
X4100Y2600D01*
X4047Y2653D02*
Y3153D01*
X4216D01*
X4419Y2950D01*
X5582D01*
X5691Y2841D01*
X5959D01*
X6003Y2885D01*
X6070D01*
X4300Y3300D02*
X4600Y3000D01*
X2000Y3300D02*
X4300D01*
X1952Y4252D02*
X2200Y4500D01*
X1952Y2746D02*
Y4252D01*
Y2746D02*
X2198Y2500D01*
X3400D01*
X1927Y2300D02*
X3400D01*
X1884Y2200D02*
X3400D01*
X6238Y2938D02*
X7200Y3900D01*
X5782Y2938D02*
X6238D01*
X5735Y2985D02*
X5782Y2938D01*
X5377Y4077D02*
X5800Y4500D01*
X5377Y3696D02*
Y4077D01*
X4900Y3900D02*
X5050Y3750D01*
X3852Y4452D02*
X3900Y4500D01*
X3226Y4452D02*
X3852D01*
X3137Y4541D02*
X3226Y4452D01*
X4368Y4604D02*
X4985D01*
X5069Y4520D01*
Y4500D02*
X5100D01*
X4304Y3900D02*
X4700D01*
X5848Y4152D02*
X6100Y3900D01*
X5848Y4152D02*
Y4586D01*
X5800Y4634D02*
X5848Y4586D01*
X5528Y4634D02*
X5800D01*
X5363Y4469D02*
X5528Y4634D01*
X5851Y4749D02*
X6100Y4500D01*
X6883Y4283D02*
X7100Y4500D01*
X6661Y4283D02*
X6883D01*
X6848Y4152D02*
X7100Y3900D01*
X4740Y4560D02*
X4800Y4500D01*
X4632Y4560D02*
X4740D01*
X4592Y4520D02*
X4632Y4560D01*
X4592Y4468D02*
Y4520D01*
X4739Y3961D02*
X4800Y3900D01*
X4526Y3961D02*
X4739D01*
X4263Y4608D02*
Y4687D01*
Y4608D02*
X4446Y4425D01*
X4925D01*
X5000Y4500D01*
X3050Y3900D02*
X3500D01*
X3535Y3965D02*
X3600Y3900D01*
X3171Y3965D02*
X3535D01*
X2500Y3900D02*
X2830Y3570D01*
X3723D01*
X2500Y4000D02*
X2549D01*
X2877Y3672D01*
X4248D01*
X2592Y4008D02*
X5145D01*
X5791Y3232D02*
X5978Y3419D01*
X4100Y2500D02*
X4250Y2650D01*
X4686D01*
X4760Y2724D01*
X6031D01*
X6070Y2685D01*
X2844Y3626D02*
X3663D01*
X2520Y3950D02*
X2844Y3626D01*
X2250Y3950D02*
X2520D01*
X2200Y4000D02*
X2250Y3950D01*
X3255Y2100D02*
X3400D01*
X5735Y3085D02*
X5835Y2985D01*
X6070D01*
X6017Y2532D02*
X6070Y2585D01*
X4632Y2532D02*
X6017D01*
X4600Y2500D02*
X4632Y2532D01*
X2200Y3500D02*
X2500Y3800D01*
X5069Y4500D02*
Y4520D01*
X2500Y4100D02*
X2592Y4008D01*
X2874Y3726D01*
X2628Y4072D02*
X4453D01*
X4451Y4074D02*
X4453Y4072D01*
X2000Y3500D02*
X2200D01*
D45*
X5735Y2285D02*
D03*
Y2385D02*
D03*
Y2485D02*
D03*
Y2585D02*
D03*
Y2685D02*
D03*
Y2785D02*
D03*
Y2885D02*
D03*
Y2985D02*
D03*
Y3085D02*
D03*
X6070D02*
D03*
Y2985D02*
D03*
Y2885D02*
D03*
Y2785D02*
D03*
Y2685D02*
D03*
Y2585D02*
D03*
Y2485D02*
D03*
Y2385D02*
D03*
D46*
Y2285D02*
D03*
D47*
X7300Y1940D02*
D03*
D48*
Y2137D02*
D03*
D49*
X2700Y2800D02*
D03*
X4600Y2200D02*
D03*
Y2100D02*
D03*
Y2000D02*
D03*
Y2500D02*
D03*
Y2600D02*
D03*
Y2700D02*
D03*
Y2800D02*
D03*
Y2900D02*
D03*
X2800Y1600D02*
D03*
Y1700D02*
D03*
Y1800D02*
D03*
X4600Y1700D02*
D03*
Y1600D02*
D03*
Y1500D02*
D03*
X3900Y4500D02*
D03*
X3800D02*
D03*
X3700D02*
D03*
X3600D02*
D03*
X3500D02*
D03*
X3900Y3900D02*
D03*
X3800D02*
D03*
X3700D02*
D03*
X3600D02*
D03*
X5100Y4500D02*
D03*
X5000D02*
D03*
X4900D02*
D03*
X4800D02*
D03*
X4700D02*
D03*
X5100Y3900D02*
D03*
X5000D02*
D03*
X4900D02*
D03*
X4800D02*
D03*
X7100D02*
D03*
X7200D02*
D03*
X7300D02*
D03*
X7400D02*
D03*
X7000Y4500D02*
D03*
X7100D02*
D03*
X7200D02*
D03*
X7300D02*
D03*
X7400D02*
D03*
X5900Y3900D02*
D03*
X6000D02*
D03*
X6100D02*
D03*
X6200D02*
D03*
X5800Y4500D02*
D03*
X5900D02*
D03*
X6000D02*
D03*
X6100D02*
D03*
X6200D02*
D03*
X2000Y3500D02*
D03*
Y3400D02*
D03*
Y3300D02*
D03*
D50*
X2700Y2700D02*
D03*
X4600Y2300D02*
D03*
Y3000D02*
D03*
X2800Y1500D02*
D03*
X4600Y1800D02*
D03*
X3500Y3900D02*
D03*
X4700D02*
D03*
X7000D02*
D03*
X5800D02*
D03*
X2000Y3200D02*
D03*
D51*
X4100Y2200D02*
D03*
Y2100D02*
D03*
Y2300D02*
D03*
Y2400D02*
D03*
Y2500D02*
D03*
Y2600D02*
D03*
Y2700D02*
D03*
Y2800D02*
D03*
Y2900D02*
D03*
Y3000D02*
D03*
Y2000D02*
D03*
Y1900D02*
D03*
Y1800D02*
D03*
Y1700D02*
D03*
Y1600D02*
D03*
Y1500D02*
D03*
Y1400D02*
D03*
Y1300D02*
D03*
Y1200D02*
D03*
X3400Y2200D02*
D03*
Y2100D02*
D03*
Y2300D02*
D03*
Y2400D02*
D03*
Y2500D02*
D03*
Y2600D02*
D03*
Y2700D02*
D03*
Y2800D02*
D03*
Y2900D02*
D03*
Y3000D02*
D03*
Y2000D02*
D03*
Y1900D02*
D03*
Y1800D02*
D03*
Y1700D02*
D03*
Y1600D02*
D03*
Y1500D02*
D03*
Y1400D02*
D03*
Y1300D02*
D03*
Y1200D02*
D03*
D52*
X4100Y3100D02*
D03*
X3400D02*
D03*
D53*
X2500Y1200D02*
D03*
X2100D02*
D03*
X2500Y3800D02*
D03*
Y3900D02*
D03*
Y4000D02*
D03*
Y4100D02*
D03*
Y4200D02*
D03*
Y4300D02*
D03*
Y4400D02*
D03*
Y4500D02*
D03*
Y4600D02*
D03*
X2200Y3800D02*
D03*
Y3900D02*
D03*
Y4000D02*
D03*
Y4100D02*
D03*
Y4200D02*
D03*
Y4300D02*
D03*
Y4400D02*
D03*
Y4500D02*
D03*
D54*
Y4600D02*
D03*
D55*
X6888Y1640D02*
D03*
D56*
X7300D02*
D03*
D57*
X5157Y1445D02*
D03*
D58*
X5248Y1236D02*
D03*
X5393Y1335D02*
D03*
D59*
X6621Y3539D02*
D03*
X3120Y4440D02*
D03*
X5306Y3680D02*
D03*
X5195Y3750D02*
D03*
X3160Y4760D02*
D03*
X6554Y3708D02*
D03*
X5676Y3557D02*
D03*
X5680Y3640D02*
D03*
X5240Y4040D02*
D03*
X4200Y3726D02*
D03*
X1927Y2300D02*
D03*
X1884Y2200D02*
D03*
X5377Y3696D02*
D03*
X3137Y4541D02*
D03*
X4368Y4604D02*
D03*
X4304Y3900D02*
D03*
X5363Y4469D02*
D03*
X5851Y4749D02*
D03*
X6848Y4152D02*
D03*
X4592Y4468D02*
D03*
X4526Y3961D02*
D03*
X4263Y4687D02*
D03*
X3050Y3900D02*
D03*
X3171Y3965D02*
D03*
X3800Y4218D02*
D03*
X3723Y3570D02*
D03*
X4248Y3672D02*
D03*
X4451Y4074D02*
D03*
X3853Y3550D02*
D03*
X5609Y3396D02*
D03*
X5791Y3232D02*
D03*
X3663Y3626D02*
D03*
X3255Y2100D02*
D03*
X5141Y3222D02*
D03*
M02*
