G04*
G04 #@! TF.GenerationSoftware,Altium Limited,Altium Designer,20.0.12 (288)*
G04*
G04 Layer_Color=8421504*
%FSLAX23Y23*%
%MOIN*%
G70*
G01*
G75*
%ADD14C,0.010*%
%ADD17R,0.411X0.378*%
%ADD18R,0.041X0.161*%
%ADD19R,0.031X0.049*%
%ADD20R,0.055X0.043*%
%ADD21R,0.043X0.055*%
%ADD22R,0.049X0.031*%
D14*
X1600Y5000D02*
X7600D01*
Y1000D02*
Y5000D01*
X1600Y1000D02*
X7600D01*
X1600D02*
Y5000D01*
D17*
X6280Y1418D02*
D03*
D18*
X6180Y1810D02*
D03*
X6380D02*
D03*
D19*
X3063Y4400D02*
D03*
X3000D02*
D03*
X5363D02*
D03*
X5300D02*
D03*
X5363Y3600D02*
D03*
X5300D02*
D03*
X6563D02*
D03*
X6500D02*
D03*
X4263Y4800D02*
D03*
X4200D02*
D03*
X3063Y4600D02*
D03*
X3000D02*
D03*
X3063Y4200D02*
D03*
X3000D02*
D03*
X3050Y4000D02*
D03*
X2987D02*
D03*
X3000Y4800D02*
D03*
X3063D02*
D03*
X3000Y3600D02*
D03*
X3063D02*
D03*
Y3800D02*
D03*
X3000D02*
D03*
X4263Y3600D02*
D03*
X4200D02*
D03*
X4263Y3800D02*
D03*
X4200D02*
D03*
X4263Y4200D02*
D03*
X4200D02*
D03*
X4263Y4600D02*
D03*
X4200D02*
D03*
X4263Y4400D02*
D03*
X4200D02*
D03*
X5363Y3800D02*
D03*
X5300D02*
D03*
X5363Y4000D02*
D03*
X5300D02*
D03*
X5363Y4200D02*
D03*
X5300D02*
D03*
X5363Y4600D02*
D03*
X5300D02*
D03*
X4263Y4000D02*
D03*
X4200D02*
D03*
X6500Y4800D02*
D03*
X6563D02*
D03*
X5300D02*
D03*
X5363D02*
D03*
X6500Y4600D02*
D03*
X6563D02*
D03*
X6500Y4400D02*
D03*
X6563D02*
D03*
Y4200D02*
D03*
X6500D02*
D03*
Y4000D02*
D03*
X6563D02*
D03*
X6500Y3800D02*
D03*
X6563D02*
D03*
D20*
X6900Y2140D02*
D03*
Y2081D02*
D03*
X2200Y3400D02*
D03*
Y3341D02*
D03*
X5720Y1550D02*
D03*
Y1490D02*
D03*
X2400Y3400D02*
D03*
Y3341D02*
D03*
D21*
X5200Y2900D02*
D03*
X5141D02*
D03*
X5200Y3100D02*
D03*
X5141D02*
D03*
D22*
X6200Y3500D02*
D03*
Y3437D02*
D03*
X7300Y3500D02*
D03*
Y3437D02*
D03*
X4000Y3500D02*
D03*
Y3437D02*
D03*
X5100Y3500D02*
D03*
Y3437D02*
D03*
M02*
