G04*
G04 #@! TF.GenerationSoftware,Altium Limited,Altium Designer,20.0.12 (288)*
G04*
G04 Layer_Color=65535*
%FSLAX23Y23*%
%MOIN*%
G70*
G01*
G75*
%ADD10C,0.010*%
%ADD11C,0.008*%
%ADD12C,0.024*%
%ADD13C,0.005*%
%ADD14C,0.010*%
%ADD15C,0.008*%
%ADD16R,0.031X0.110*%
D10*
X6427Y1810D02*
G03*
X6427Y1810I-5J0D01*
G01*
X2205Y4649D02*
G03*
X2205Y4649I-5J0D01*
G01*
X3505Y3802D02*
G03*
X3505Y3802I-5J0D01*
G01*
X4705D02*
G03*
X4705Y3802I-5J0D01*
G01*
X7005D02*
G03*
X7005Y3802I-5J0D01*
G01*
X5805D02*
G03*
X5805Y3802I-5J0D01*
G01*
D11*
X6115Y2285D02*
G03*
X6115Y2285I-4J0D01*
G01*
X7342Y1972D02*
G03*
X7333Y2110I-42J66D01*
G01*
X7267D02*
G03*
X7258Y1972I33J-72D01*
G01*
X4109Y3217D02*
G03*
X4109Y3217I-9J0D01*
G01*
X2325Y4659D02*
G03*
X2375Y4659I25J0D01*
G01*
X6075Y1674D02*
X6485D01*
X6075Y1623D02*
Y1674D01*
X6485Y1623D02*
Y1674D01*
X3028Y4379D02*
X3035D01*
X3028Y4421D02*
X3035D01*
X5328Y4379D02*
X5335D01*
X5328Y4421D02*
X5335D01*
X5328Y3579D02*
X5335D01*
X5328Y3621D02*
X5335D01*
X6528Y3579D02*
X6535D01*
X6528Y3621D02*
X6535D01*
X2650Y2650D02*
Y2850D01*
Y2650D02*
X2750D01*
Y2850D01*
X2650D02*
X2750D01*
X4550Y1950D02*
X4650D01*
X4550D02*
Y2350D01*
X4650Y1950D02*
Y2350D01*
X4550D02*
X4650D01*
X4550Y2450D02*
Y3050D01*
X4650Y2450D02*
Y3050D01*
X4550D02*
X4650D01*
X4550Y2450D02*
X4650D01*
X6221Y3465D02*
Y3472D01*
X6179Y3465D02*
Y3472D01*
X7321Y3465D02*
Y3472D01*
X7279Y3465D02*
Y3472D01*
X4021Y3465D02*
Y3472D01*
X3979Y3465D02*
Y3472D01*
X4228Y4779D02*
X4235D01*
X4228Y4821D02*
X4235D01*
X3028Y4579D02*
X3035D01*
X3028Y4621D02*
X3035D01*
X3028Y4179D02*
X3035D01*
X3028Y4221D02*
X3035D01*
X3015Y3979D02*
X3022D01*
X3015Y4021D02*
X3022D01*
X3028Y4821D02*
X3035D01*
X3028Y4779D02*
X3035D01*
X3028Y3621D02*
X3035D01*
X3028Y3579D02*
X3035D01*
X2420Y1200D02*
X2460D01*
X2140D02*
X2180D01*
Y1160D02*
X2420D01*
Y1240D01*
X2180D02*
X2420D01*
X2180Y1160D02*
Y1240D01*
X2750Y1850D02*
X2850D01*
Y1450D02*
Y1850D01*
X2750Y1450D02*
Y1850D01*
Y1450D02*
X2850D01*
X4550D02*
X4650D01*
X4550D02*
Y1850D01*
X4650Y1450D02*
Y1850D01*
X4550D02*
X4650D01*
X3028Y3779D02*
X3035D01*
X3028Y3821D02*
X3035D01*
X2244Y3741D02*
X2456D01*
X2375Y4659D02*
X2456D01*
X2244D02*
X2325D01*
X2456Y3741D02*
Y4659D01*
X2244Y3741D02*
Y4659D01*
X5121Y3465D02*
Y3472D01*
X5079Y3465D02*
Y3472D01*
X3448Y3828D02*
X3952D01*
Y4572D01*
X3448D02*
X3952D01*
X3448Y3828D02*
Y4572D01*
X4648Y3828D02*
X5152D01*
Y4572D01*
X4648D02*
X5152D01*
X4648Y3828D02*
Y4572D01*
X4228Y3579D02*
X4235D01*
X4228Y3621D02*
X4235D01*
X4228Y3779D02*
X4235D01*
X4228Y3821D02*
X4235D01*
X4228Y4179D02*
X4235D01*
X4228Y4221D02*
X4235D01*
X4228Y4579D02*
X4235D01*
X4228Y4621D02*
X4235D01*
X4228Y4379D02*
X4235D01*
X4228Y4421D02*
X4235D01*
X5328Y3779D02*
X5335D01*
X5328Y3821D02*
X5335D01*
X5328Y3979D02*
X5335D01*
X5328Y4021D02*
X5335D01*
X5328Y4179D02*
X5335D01*
X5328Y4221D02*
X5335D01*
X5328Y4579D02*
X5335D01*
X5328Y4621D02*
X5335D01*
X4228Y3979D02*
X4235D01*
X4228Y4021D02*
X4235D01*
X6948Y3828D02*
Y4572D01*
X7452D01*
Y3828D02*
Y4572D01*
X6948Y3828D02*
X7452D01*
X5748D02*
Y4572D01*
X6252D01*
Y3828D02*
Y4572D01*
X5748Y3828D02*
X6252D01*
X6528Y4821D02*
X6535D01*
X6528Y4779D02*
X6535D01*
X5328Y4821D02*
X5335D01*
X5328Y4779D02*
X5335D01*
X6528Y4621D02*
X6535D01*
X6528Y4579D02*
X6535D01*
X6528Y4421D02*
X6535D01*
X6528Y4379D02*
X6535D01*
X6528Y4179D02*
X6535D01*
X6528Y4221D02*
X6535D01*
X1950Y3150D02*
X2050D01*
X1950D02*
Y3550D01*
X2050Y3150D02*
Y3550D01*
X1950D02*
X2050D01*
X6528Y4021D02*
X6535D01*
X6528Y3979D02*
X6535D01*
X6528Y3821D02*
X6535D01*
X6528Y3779D02*
X6535D01*
X6990Y1585D02*
Y1695D01*
X7198D01*
X6990Y1585D02*
X7198D01*
D12*
X2295Y4619D02*
G03*
X2295Y4619I-12J0D01*
G01*
D13*
X5763Y3142D02*
X6042D01*
X5763Y2228D02*
X6042D01*
X4150Y1126D02*
Y3174D01*
X3350Y1126D02*
X4150D01*
X3350D02*
Y3174D01*
X4150D01*
X5118Y1610D02*
X5472D01*
X5118Y1516D02*
Y1610D01*
X5472Y1362D02*
Y1610D01*
Y1189D02*
Y1299D01*
X5307Y1189D02*
X5472D01*
X5118D02*
Y1370D01*
Y1189D02*
X5197D01*
D14*
X5895Y1830D02*
X5915D01*
X5905D01*
Y1770D01*
X5895D01*
X5915D01*
X5985Y1820D02*
X5975Y1830D01*
X5955D01*
X5945Y1820D01*
Y1780D01*
X5955Y1770D01*
X5975D01*
X5985Y1780D01*
X6005Y1770D02*
X6025D01*
X6015D01*
Y1830D01*
X6005Y1820D01*
X2950Y4450D02*
Y4510D01*
X2980D01*
X2990Y4500D01*
Y4480D01*
X2980Y4470D01*
X2950D01*
X2970D02*
X2990Y4450D01*
X3010Y4510D02*
X3050D01*
Y4500D01*
X3010Y4460D01*
Y4450D01*
X6610Y3090D02*
X6630D01*
X6620D01*
Y3150D01*
X6610Y3140D01*
X6660Y3090D02*
X6680D01*
X6670D01*
Y3150D01*
X6660Y3140D01*
X6710Y3100D02*
X6720Y3090D01*
X6740D01*
X6750Y3100D01*
Y3140D01*
X6740Y3150D01*
X6720D01*
X6710Y3140D01*
Y3130D01*
X6720Y3120D01*
X6750D01*
X6770Y3140D02*
X6780Y3150D01*
X6800D01*
X6810Y3140D01*
Y3100D01*
X6800Y3090D01*
X6780D01*
X6770Y3100D01*
Y3140D01*
X6830Y3090D02*
X6850D01*
X6840D01*
Y3150D01*
X6830Y3140D01*
X6880D02*
X6890Y3150D01*
X6910D01*
X6920Y3140D01*
Y3130D01*
X6910Y3120D01*
X6920Y3110D01*
Y3100D01*
X6910Y3090D01*
X6890D01*
X6880Y3100D01*
Y3110D01*
X6890Y3120D01*
X6880Y3130D01*
Y3140D01*
X6890Y3120D02*
X6910D01*
X6940Y3100D02*
X6950Y3090D01*
X6970D01*
X6980Y3100D01*
Y3140D01*
X6970Y3150D01*
X6950D01*
X6940Y3140D01*
Y3130D01*
X6950Y3120D01*
X6980D01*
X7000Y3140D02*
X7010Y3150D01*
X7030D01*
X7040Y3140D01*
Y3130D01*
X7030Y3120D01*
X7020D01*
X7030D01*
X7040Y3110D01*
Y3100D01*
X7030Y3090D01*
X7010D01*
X7000Y3100D01*
X5206Y1416D02*
X5223D01*
X5215D01*
Y1466D01*
X5206Y1458D01*
X5404Y1271D02*
X5413Y1279D01*
X5429D01*
X5438Y1271D01*
Y1262D01*
X5429Y1254D01*
X5421D01*
X5429D01*
X5438Y1246D01*
Y1237D01*
X5429Y1229D01*
X5413D01*
X5404Y1237D01*
X5255Y1297D02*
X5221D01*
X5255Y1330D01*
Y1338D01*
X5246Y1347D01*
X5230D01*
X5221Y1338D01*
X3820Y2155D02*
Y2135D01*
X3810Y2125D01*
X3790D01*
X3780Y2135D01*
Y2155D01*
X3790Y2165D01*
X3800D01*
Y2125D01*
X3820Y2185D02*
Y2215D01*
X3810Y2225D01*
X3800Y2215D01*
Y2195D01*
X3790Y2185D01*
X3780Y2195D01*
Y2225D01*
X3840Y2245D02*
X3780D01*
Y2275D01*
X3790Y2285D01*
X3810D01*
X3820Y2275D01*
Y2245D01*
X3770Y2305D02*
X3760Y2315D01*
Y2335D01*
X3770Y2345D01*
X3780D01*
X3790Y2335D01*
Y2325D01*
Y2335D01*
X3800Y2345D01*
X3810D01*
X3820Y2335D01*
Y2315D01*
X3810Y2305D01*
X3820Y2405D02*
Y2365D01*
X3780Y2405D01*
X3770D01*
X3760Y2395D01*
Y2375D01*
X3770Y2365D01*
X3790Y2425D02*
Y2465D01*
X3840Y2485D02*
X3780D01*
Y2515D01*
X3790Y2525D01*
X3810D01*
X3820Y2515D01*
Y2485D01*
Y2545D02*
Y2565D01*
Y2555D01*
X3780D01*
Y2545D01*
Y2635D02*
Y2605D01*
X3790Y2595D01*
X3810D01*
X3820Y2605D01*
Y2635D01*
Y2665D02*
Y2685D01*
X3810Y2695D01*
X3790D01*
X3780Y2685D01*
Y2665D01*
X3790Y2655D01*
X3810D01*
X3820Y2665D01*
X3790Y2715D02*
Y2755D01*
X3760Y2815D02*
X3820D01*
Y2785D01*
X3810Y2775D01*
X3790D01*
X3780Y2785D01*
Y2815D01*
X3820Y2865D02*
X3760D01*
X3790Y2835D01*
Y2875D01*
X2225Y4830D02*
X2245D01*
X2235D01*
Y4770D01*
X2225D01*
X2245D01*
X2315Y4820D02*
X2305Y4830D01*
X2285D01*
X2275Y4820D01*
Y4780D01*
X2285Y4770D01*
X2305D01*
X2315Y4780D01*
X2375Y4770D02*
X2335D01*
X2375Y4810D01*
Y4820D01*
X2365Y4830D01*
X2345D01*
X2335Y4820D01*
X6120Y3330D02*
Y3390D01*
X6150D01*
X6160Y3380D01*
Y3360D01*
X6150Y3350D01*
X6120D01*
X6140D02*
X6160Y3330D01*
X6180Y3380D02*
X6190Y3390D01*
X6210D01*
X6220Y3380D01*
Y3370D01*
X6210Y3360D01*
X6200D01*
X6210D01*
X6220Y3350D01*
Y3340D01*
X6210Y3330D01*
X6190D01*
X6180Y3340D01*
X6280Y3390D02*
X6260Y3380D01*
X6240Y3360D01*
Y3340D01*
X6250Y3330D01*
X6270D01*
X6280Y3340D01*
Y3350D01*
X6270Y3360D01*
X6240D01*
X5440Y3690D02*
Y3750D01*
X5470D01*
X5480Y3740D01*
Y3720D01*
X5470Y3710D01*
X5440D01*
X5460D02*
X5480Y3690D01*
X5500Y3740D02*
X5510Y3750D01*
X5530D01*
X5540Y3740D01*
Y3730D01*
X5530Y3720D01*
X5520D01*
X5530D01*
X5540Y3710D01*
Y3700D01*
X5530Y3690D01*
X5510D01*
X5500Y3700D01*
X5600Y3750D02*
X5560D01*
Y3720D01*
X5580Y3730D01*
X5590D01*
X5600Y3720D01*
Y3700D01*
X5590Y3690D01*
X5570D01*
X5560Y3700D01*
X5320Y3850D02*
Y3910D01*
X5350D01*
X5360Y3900D01*
Y3880D01*
X5350Y3870D01*
X5320D01*
X5340D02*
X5360Y3850D01*
X5380Y3900D02*
X5390Y3910D01*
X5410D01*
X5420Y3900D01*
Y3890D01*
X5410Y3880D01*
X5400D01*
X5410D01*
X5420Y3870D01*
Y3860D01*
X5410Y3850D01*
X5390D01*
X5380Y3860D01*
X5470Y3850D02*
Y3910D01*
X5440Y3880D01*
X5480D01*
X5320Y4050D02*
Y4110D01*
X5350D01*
X5360Y4100D01*
Y4080D01*
X5350Y4070D01*
X5320D01*
X5340D02*
X5360Y4050D01*
X5380Y4100D02*
X5390Y4110D01*
X5410D01*
X5420Y4100D01*
Y4090D01*
X5410Y4080D01*
X5400D01*
X5410D01*
X5420Y4070D01*
Y4060D01*
X5410Y4050D01*
X5390D01*
X5380Y4060D01*
X5440Y4100D02*
X5450Y4110D01*
X5470D01*
X5480Y4100D01*
Y4090D01*
X5470Y4080D01*
X5460D01*
X5470D01*
X5480Y4070D01*
Y4060D01*
X5470Y4050D01*
X5450D01*
X5440Y4060D01*
X5320Y4250D02*
Y4310D01*
X5350D01*
X5360Y4300D01*
Y4280D01*
X5350Y4270D01*
X5320D01*
X5340D02*
X5360Y4250D01*
X5380Y4300D02*
X5390Y4310D01*
X5410D01*
X5420Y4300D01*
Y4290D01*
X5410Y4280D01*
X5400D01*
X5410D01*
X5420Y4270D01*
Y4260D01*
X5410Y4250D01*
X5390D01*
X5380Y4260D01*
X5480Y4250D02*
X5440D01*
X5480Y4290D01*
Y4300D01*
X5470Y4310D01*
X5450D01*
X5440Y4300D01*
X5410Y4450D02*
Y4510D01*
X5440D01*
X5450Y4500D01*
Y4480D01*
X5440Y4470D01*
X5410D01*
X5430D02*
X5450Y4450D01*
X5470Y4500D02*
X5480Y4510D01*
X5500D01*
X5510Y4500D01*
Y4490D01*
X5500Y4480D01*
X5490D01*
X5500D01*
X5510Y4470D01*
Y4460D01*
X5500Y4450D01*
X5480D01*
X5470Y4460D01*
X5530Y4450D02*
X5550D01*
X5540D01*
Y4510D01*
X5530Y4500D01*
X5289Y4662D02*
Y4722D01*
X5319D01*
X5329Y4712D01*
Y4692D01*
X5319Y4682D01*
X5289D01*
X5309D02*
X5329Y4662D01*
X5349Y4712D02*
X5359Y4722D01*
X5379D01*
X5389Y4712D01*
Y4702D01*
X5379Y4692D01*
X5369D01*
X5379D01*
X5389Y4682D01*
Y4672D01*
X5379Y4662D01*
X5359D01*
X5349Y4672D01*
X5409Y4712D02*
X5419Y4722D01*
X5439D01*
X5449Y4712D01*
Y4672D01*
X5439Y4662D01*
X5419D01*
X5409Y4672D01*
Y4712D01*
X5289Y4862D02*
Y4922D01*
X5319D01*
X5329Y4912D01*
Y4892D01*
X5319Y4882D01*
X5289D01*
X5309D02*
X5329Y4862D01*
X5389D02*
X5349D01*
X5389Y4902D01*
Y4912D01*
X5379Y4922D01*
X5359D01*
X5349Y4912D01*
X5409Y4872D02*
X5419Y4862D01*
X5439D01*
X5449Y4872D01*
Y4912D01*
X5439Y4922D01*
X5419D01*
X5409Y4912D01*
Y4902D01*
X5419Y4892D01*
X5449D01*
X7040Y3330D02*
Y3390D01*
X7070D01*
X7080Y3380D01*
Y3360D01*
X7070Y3350D01*
X7040D01*
X7060D02*
X7080Y3330D01*
X7140D02*
X7100D01*
X7140Y3370D01*
Y3380D01*
X7130Y3390D01*
X7110D01*
X7100Y3380D01*
X7160D02*
X7170Y3390D01*
X7190D01*
X7200Y3380D01*
Y3370D01*
X7190Y3360D01*
X7200Y3350D01*
Y3340D01*
X7190Y3330D01*
X7170D01*
X7160Y3340D01*
Y3350D01*
X7170Y3360D01*
X7160Y3370D01*
Y3380D01*
X7170Y3360D02*
X7190D01*
X6320Y3650D02*
Y3710D01*
X6350D01*
X6360Y3700D01*
Y3680D01*
X6350Y3670D01*
X6320D01*
X6340D02*
X6360Y3650D01*
X6420D02*
X6380D01*
X6420Y3690D01*
Y3700D01*
X6410Y3710D01*
X6390D01*
X6380Y3700D01*
X6440Y3710D02*
X6480D01*
Y3700D01*
X6440Y3660D01*
Y3650D01*
X6489Y3862D02*
Y3922D01*
X6519D01*
X6529Y3912D01*
Y3892D01*
X6519Y3882D01*
X6489D01*
X6509D02*
X6529Y3862D01*
X6589D02*
X6549D01*
X6589Y3902D01*
Y3912D01*
X6579Y3922D01*
X6559D01*
X6549Y3912D01*
X6649Y3922D02*
X6629Y3912D01*
X6609Y3892D01*
Y3872D01*
X6619Y3862D01*
X6639D01*
X6649Y3872D01*
Y3882D01*
X6639Y3892D01*
X6609D01*
X6489Y4062D02*
Y4122D01*
X6519D01*
X6529Y4112D01*
Y4092D01*
X6519Y4082D01*
X6489D01*
X6509D02*
X6529Y4062D01*
X6589D02*
X6549D01*
X6589Y4102D01*
Y4112D01*
X6579Y4122D01*
X6559D01*
X6549Y4112D01*
X6649Y4122D02*
X6609D01*
Y4092D01*
X6629Y4102D01*
X6639D01*
X6649Y4092D01*
Y4072D01*
X6639Y4062D01*
X6619D01*
X6609Y4072D01*
X6489Y4262D02*
Y4322D01*
X6519D01*
X6529Y4312D01*
Y4292D01*
X6519Y4282D01*
X6489D01*
X6509D02*
X6529Y4262D01*
X6589D02*
X6549D01*
X6589Y4302D01*
Y4312D01*
X6579Y4322D01*
X6559D01*
X6549Y4312D01*
X6639Y4262D02*
Y4322D01*
X6609Y4292D01*
X6649D01*
X6489Y4462D02*
Y4522D01*
X6519D01*
X6529Y4512D01*
Y4492D01*
X6519Y4482D01*
X6489D01*
X6509D02*
X6529Y4462D01*
X6589D02*
X6549D01*
X6589Y4502D01*
Y4512D01*
X6579Y4522D01*
X6559D01*
X6549Y4512D01*
X6609D02*
X6619Y4522D01*
X6639D01*
X6649Y4512D01*
Y4502D01*
X6639Y4492D01*
X6629D01*
X6639D01*
X6649Y4482D01*
Y4472D01*
X6639Y4462D01*
X6619D01*
X6609Y4472D01*
X6489Y4662D02*
Y4722D01*
X6519D01*
X6529Y4712D01*
Y4692D01*
X6519Y4682D01*
X6489D01*
X6509D02*
X6529Y4662D01*
X6589D02*
X6549D01*
X6589Y4702D01*
Y4712D01*
X6579Y4722D01*
X6559D01*
X6549Y4712D01*
X6649Y4662D02*
X6609D01*
X6649Y4702D01*
Y4712D01*
X6639Y4722D01*
X6619D01*
X6609Y4712D01*
X6489Y4862D02*
Y4922D01*
X6519D01*
X6529Y4912D01*
Y4892D01*
X6519Y4882D01*
X6489D01*
X6509D02*
X6529Y4862D01*
X6589D02*
X6549D01*
X6589Y4902D01*
Y4912D01*
X6579Y4922D01*
X6559D01*
X6549Y4912D01*
X6609Y4862D02*
X6629D01*
X6619D01*
Y4922D01*
X6609Y4912D01*
X5120Y3330D02*
Y3390D01*
X5150D01*
X5160Y3380D01*
Y3360D01*
X5150Y3350D01*
X5120D01*
X5140D02*
X5160Y3330D01*
X5220D02*
X5180D01*
X5220Y3370D01*
Y3380D01*
X5210Y3390D01*
X5190D01*
X5180Y3380D01*
X5240D02*
X5250Y3390D01*
X5270D01*
X5280Y3380D01*
Y3340D01*
X5270Y3330D01*
X5250D01*
X5240Y3340D01*
Y3380D01*
X4285Y3690D02*
Y3750D01*
X4315D01*
X4325Y3740D01*
Y3720D01*
X4315Y3710D01*
X4285D01*
X4305D02*
X4325Y3690D01*
X4345D02*
X4365D01*
X4355D01*
Y3750D01*
X4345Y3740D01*
X4395Y3700D02*
X4405Y3690D01*
X4425D01*
X4435Y3700D01*
Y3740D01*
X4425Y3750D01*
X4405D01*
X4395Y3740D01*
Y3730D01*
X4405Y3720D01*
X4435D01*
X4085Y3890D02*
Y3950D01*
X4115D01*
X4125Y3940D01*
Y3920D01*
X4115Y3910D01*
X4085D01*
X4105D02*
X4125Y3890D01*
X4145D02*
X4165D01*
X4155D01*
Y3950D01*
X4145Y3940D01*
X4195D02*
X4205Y3950D01*
X4225D01*
X4235Y3940D01*
Y3930D01*
X4225Y3920D01*
X4235Y3910D01*
Y3900D01*
X4225Y3890D01*
X4205D01*
X4195Y3900D01*
Y3910D01*
X4205Y3920D01*
X4195Y3930D01*
Y3940D01*
X4205Y3920D02*
X4225D01*
X4175Y4070D02*
Y4130D01*
X4205D01*
X4215Y4120D01*
Y4100D01*
X4205Y4090D01*
X4175D01*
X4195D02*
X4215Y4070D01*
X4235D02*
X4255D01*
X4245D01*
Y4130D01*
X4235Y4120D01*
X4285Y4130D02*
X4325D01*
Y4120D01*
X4285Y4080D01*
Y4070D01*
X4188Y4270D02*
Y4330D01*
X4218D01*
X4228Y4320D01*
Y4300D01*
X4218Y4290D01*
X4188D01*
X4208D02*
X4228Y4270D01*
X4248D02*
X4268D01*
X4258D01*
Y4330D01*
X4248Y4320D01*
X4338Y4330D02*
X4318Y4320D01*
X4298Y4300D01*
Y4280D01*
X4308Y4270D01*
X4328D01*
X4338Y4280D01*
Y4290D01*
X4328Y4300D01*
X4298D01*
X4188Y4470D02*
Y4530D01*
X4218D01*
X4228Y4520D01*
Y4500D01*
X4218Y4490D01*
X4188D01*
X4208D02*
X4228Y4470D01*
X4248D02*
X4268D01*
X4258D01*
Y4530D01*
X4248Y4520D01*
X4338Y4530D02*
X4298D01*
Y4500D01*
X4318Y4510D01*
X4328D01*
X4338Y4500D01*
Y4480D01*
X4328Y4470D01*
X4308D01*
X4298Y4480D01*
X4045Y4650D02*
Y4710D01*
X4075D01*
X4085Y4700D01*
Y4680D01*
X4075Y4670D01*
X4045D01*
X4065D02*
X4085Y4650D01*
X4105D02*
X4125D01*
X4115D01*
Y4710D01*
X4105Y4700D01*
X4185Y4650D02*
Y4710D01*
X4155Y4680D01*
X4195D01*
X4225Y4870D02*
Y4930D01*
X4255D01*
X4265Y4920D01*
Y4900D01*
X4255Y4890D01*
X4225D01*
X4245D02*
X4265Y4870D01*
X4285D02*
X4305D01*
X4295D01*
Y4930D01*
X4285Y4920D01*
X4335D02*
X4345Y4930D01*
X4365D01*
X4375Y4920D01*
Y4910D01*
X4365Y4900D01*
X4355D01*
X4365D01*
X4375Y4890D01*
Y4880D01*
X4365Y4870D01*
X4345D01*
X4335Y4880D01*
X4045Y3330D02*
Y3390D01*
X4075D01*
X4085Y3380D01*
Y3360D01*
X4075Y3350D01*
X4045D01*
X4065D02*
X4085Y3330D01*
X4105D02*
X4125D01*
X4115D01*
Y3390D01*
X4105Y3380D01*
X4195Y3330D02*
X4155D01*
X4195Y3370D01*
Y3380D01*
X4185Y3390D01*
X4165D01*
X4155Y3380D01*
X2935Y3690D02*
Y3750D01*
X2965D01*
X2975Y3740D01*
Y3720D01*
X2965Y3710D01*
X2935D01*
X2955D02*
X2975Y3690D01*
X2995D02*
X3015D01*
X3005D01*
Y3750D01*
X2995Y3740D01*
X3045Y3690D02*
X3065D01*
X3055D01*
Y3750D01*
X3045Y3740D01*
X2845Y3850D02*
Y3910D01*
X2875D01*
X2885Y3900D01*
Y3880D01*
X2875Y3870D01*
X2845D01*
X2865D02*
X2885Y3850D01*
X2905D02*
X2925D01*
X2915D01*
Y3910D01*
X2905Y3900D01*
X2955D02*
X2965Y3910D01*
X2985D01*
X2995Y3900D01*
Y3860D01*
X2985Y3850D01*
X2965D01*
X2955Y3860D01*
Y3900D01*
X2976Y4062D02*
Y4122D01*
X3006D01*
X3016Y4112D01*
Y4092D01*
X3006Y4082D01*
X2976D01*
X2996D02*
X3016Y4062D01*
X3036Y4072D02*
X3046Y4062D01*
X3066D01*
X3076Y4072D01*
Y4112D01*
X3066Y4122D01*
X3046D01*
X3036Y4112D01*
Y4102D01*
X3046Y4092D01*
X3076D01*
X2989Y4262D02*
Y4322D01*
X3019D01*
X3029Y4312D01*
Y4292D01*
X3019Y4282D01*
X2989D01*
X3009D02*
X3029Y4262D01*
X3049Y4312D02*
X3059Y4322D01*
X3079D01*
X3089Y4312D01*
Y4302D01*
X3079Y4292D01*
X3089Y4282D01*
Y4272D01*
X3079Y4262D01*
X3059D01*
X3049Y4272D01*
Y4282D01*
X3059Y4292D01*
X3049Y4302D01*
Y4312D01*
X3059Y4292D02*
X3079D01*
X2990Y4650D02*
Y4710D01*
X3020D01*
X3030Y4700D01*
Y4680D01*
X3020Y4670D01*
X2990D01*
X3010D02*
X3030Y4650D01*
X3090Y4710D02*
X3070Y4700D01*
X3050Y4680D01*
Y4660D01*
X3060Y4650D01*
X3080D01*
X3090Y4660D01*
Y4670D01*
X3080Y4680D01*
X3050D01*
X2990Y4890D02*
Y4950D01*
X3020D01*
X3030Y4940D01*
Y4920D01*
X3020Y4910D01*
X2990D01*
X3010D02*
X3030Y4890D01*
X3090Y4950D02*
X3050D01*
Y4920D01*
X3070Y4930D01*
X3080D01*
X3090Y4920D01*
Y4900D01*
X3080Y4890D01*
X3060D01*
X3050Y4900D01*
X2460Y1070D02*
Y1130D01*
X2490D01*
X2500Y1120D01*
Y1100D01*
X2490Y1090D01*
X2460D01*
X2480D02*
X2500Y1070D01*
X2520D02*
X2540D01*
X2530D01*
Y1130D01*
X2520Y1120D01*
X5565Y3210D02*
Y3250D01*
X5575D01*
X5585Y3240D01*
Y3210D01*
Y3240D01*
X5595Y3250D01*
X5605Y3240D01*
Y3210D01*
X5625D02*
X5645D01*
X5635D01*
Y3250D01*
X5625D01*
X5715D02*
X5685D01*
X5675Y3240D01*
Y3220D01*
X5685Y3210D01*
X5715D01*
X2820Y3030D02*
Y2970D01*
Y2990D01*
X2860Y3030D01*
X2830Y3000D01*
X2860Y2970D01*
X2920D02*
X2880D01*
X2920Y3010D01*
Y3020D01*
X2910Y3030D01*
X2890D01*
X2880Y3020D01*
X2980Y2970D02*
X2940D01*
X2980Y3010D01*
Y3020D01*
X2970Y3030D01*
X2950D01*
X2940Y3020D01*
X1957Y3643D02*
Y3583D01*
Y3603D01*
X1996Y3643D01*
X1966Y3613D01*
X1996Y3583D01*
X2016D02*
X2036D01*
X2026D01*
Y3643D01*
X2016Y3633D01*
X2066Y3583D02*
X2086D01*
X2076D01*
Y3643D01*
X2066Y3633D01*
X5108Y1650D02*
Y1710D01*
Y1670D02*
X5138Y1690D01*
X5108Y1670D02*
X5138Y1650D01*
X5208Y1710D02*
X5188Y1700D01*
X5168Y1680D01*
Y1660D01*
X5178Y1650D01*
X5198D01*
X5208Y1660D01*
Y1670D01*
X5198Y1680D01*
X5168D01*
X4750Y2130D02*
Y2070D01*
Y2090D01*
X4790Y2130D01*
X4760Y2100D01*
X4790Y2070D01*
X4850Y2130D02*
X4810D01*
Y2100D01*
X4830Y2110D01*
X4840D01*
X4850Y2100D01*
Y2080D01*
X4840Y2070D01*
X4820D01*
X4810Y2080D01*
X4550Y1430D02*
Y1370D01*
Y1390D01*
X4590Y1430D01*
X4560Y1400D01*
X4590Y1370D01*
X4640D02*
Y1430D01*
X4610Y1400D01*
X4650D01*
X2750Y1330D02*
Y1270D01*
Y1290D01*
X2790Y1330D01*
X2760Y1300D01*
X2790Y1270D01*
X2810Y1320D02*
X2820Y1330D01*
X2840D01*
X2850Y1320D01*
Y1310D01*
X2840Y1300D01*
X2830D01*
X2840D01*
X2850Y1290D01*
Y1280D01*
X2840Y1270D01*
X2820D01*
X2810Y1280D01*
X4750Y2830D02*
Y2770D01*
Y2790D01*
X4790Y2830D01*
X4760Y2800D01*
X4790Y2770D01*
X4850D02*
X4810D01*
X4850Y2810D01*
Y2820D01*
X4840Y2830D01*
X4820D01*
X4810Y2820D01*
X6855Y1789D02*
Y1729D01*
X6885D01*
X6895Y1739D01*
Y1779D01*
X6885Y1789D01*
X6855D01*
X6915Y1729D02*
X6935D01*
X6925D01*
Y1789D01*
X6915Y1779D01*
X2290Y3620D02*
X2280Y3630D01*
X2260D01*
X2250Y3620D01*
Y3580D01*
X2260Y3570D01*
X2280D01*
X2290Y3580D01*
X2310Y3630D02*
X2350D01*
Y3620D01*
X2310Y3580D01*
Y3570D01*
X4990Y3020D02*
X4980Y3030D01*
X4960D01*
X4950Y3020D01*
Y2980D01*
X4960Y2970D01*
X4980D01*
X4990Y2980D01*
X5050Y3030D02*
X5030Y3020D01*
X5010Y3000D01*
Y2980D01*
X5020Y2970D01*
X5040D01*
X5050Y2980D01*
Y2990D01*
X5040Y3000D01*
X5010D01*
X2510Y3220D02*
X2500Y3230D01*
X2480D01*
X2470Y3220D01*
Y3180D01*
X2480Y3170D01*
X2500D01*
X2510Y3180D01*
X2570Y3230D02*
X2530D01*
Y3200D01*
X2550Y3210D01*
X2560D01*
X2570Y3200D01*
Y3180D01*
X2560Y3170D01*
X2540D01*
X2530Y3180D01*
X4990Y3120D02*
X4980Y3130D01*
X4960D01*
X4950Y3120D01*
Y3080D01*
X4960Y3070D01*
X4980D01*
X4990Y3080D01*
X5040Y3070D02*
Y3130D01*
X5010Y3100D01*
X5050D01*
X5880Y1170D02*
X5890Y1160D01*
X5910D01*
X5920Y1170D01*
Y1210D01*
X5910Y1220D01*
X5890D01*
X5880Y1210D01*
X5860Y1170D02*
X5850Y1160D01*
X5830D01*
X5820Y1170D01*
Y1180D01*
X5830Y1190D01*
X5840D01*
X5830D01*
X5820Y1200D01*
Y1210D01*
X5830Y1220D01*
X5850D01*
X5860Y1210D01*
X6917Y2248D02*
X6907Y2258D01*
X6887D01*
X6877Y2248D01*
Y2208D01*
X6887Y2198D01*
X6907D01*
X6917Y2208D01*
X6977Y2198D02*
X6937D01*
X6977Y2238D01*
Y2248D01*
X6967Y2258D01*
X6947D01*
X6937Y2248D01*
X7267Y2247D02*
X7257Y2257D01*
X7237D01*
X7227Y2247D01*
Y2207D01*
X7237Y2197D01*
X7257D01*
X7267Y2207D01*
X7287Y2197D02*
X7307D01*
X7297D01*
Y2257D01*
X7287Y2247D01*
X1600Y5000D02*
X7600D01*
Y1000D02*
Y5000D01*
X1600Y1000D02*
X7600D01*
X1600D02*
Y5000D01*
D15*
X3618Y2908D02*
X3692D01*
X3618D02*
Y2954D01*
X3654Y2908D02*
Y2936D01*
X3636Y3015D02*
X3629Y3011D01*
X3622Y3004D01*
X3618Y2997D01*
Y2983D01*
X3622Y2976D01*
X3629Y2969D01*
X3636Y2965D01*
X3647Y2962D01*
X3664D01*
X3675Y2965D01*
X3682Y2969D01*
X3689Y2976D01*
X3692Y2983D01*
Y2997D01*
X3689Y3004D01*
X3682Y3011D01*
X3675Y3015D01*
X3629Y3085D02*
X3622Y3078D01*
X3618Y3067D01*
Y3053D01*
X3622Y3042D01*
X3629Y3035D01*
X3636D01*
X3643Y3039D01*
X3647Y3042D01*
X3650Y3049D01*
X3657Y3071D01*
X3661Y3078D01*
X3664Y3081D01*
X3671Y3085D01*
X3682D01*
X3689Y3078D01*
X3692Y3067D01*
Y3053D01*
X3689Y3042D01*
X3682Y3035D01*
X3282Y1250D02*
Y1285D01*
X3250Y1289D01*
X3253Y1285D01*
X3257Y1275D01*
Y1264D01*
X3253Y1254D01*
X3246Y1247D01*
X3236Y1243D01*
X3229D01*
X3218Y1247D01*
X3211Y1254D01*
X3208Y1264D01*
Y1275D01*
X3211Y1285D01*
X3215Y1289D01*
X3222Y1292D01*
X3282Y1226D02*
X3208Y1198D01*
X3282Y1170D02*
X3208Y1198D01*
X3932Y3092D02*
X3858D01*
X3932D02*
Y3046D01*
X3896Y3092D02*
Y3064D01*
X3921Y2989D02*
X3928Y2996D01*
X3932Y3006D01*
Y3020D01*
X3928Y3031D01*
X3921Y3038D01*
X3914D01*
X3907Y3035D01*
X3904Y3031D01*
X3900Y3024D01*
X3893Y3003D01*
X3889Y2996D01*
X3886Y2992D01*
X3879Y2989D01*
X3868D01*
X3861Y2996D01*
X3858Y3006D01*
Y3020D01*
X3861Y3031D01*
X3868Y3038D01*
X3932Y2972D02*
X3858D01*
X3932D02*
Y2948D01*
X3928Y2937D01*
X3921Y2930D01*
X3914Y2927D01*
X3904Y2923D01*
X3886D01*
X3875Y2927D01*
X3868Y2930D01*
X3861Y2937D01*
X3858Y2948D01*
Y2972D01*
X3918Y2907D02*
X3921Y2900D01*
X3932Y2889D01*
X3858D01*
X4282Y1285D02*
Y1247D01*
X4253Y1268D01*
Y1257D01*
X4250Y1250D01*
X4246Y1247D01*
X4236Y1243D01*
X4229D01*
X4218Y1247D01*
X4211Y1254D01*
X4208Y1264D01*
Y1275D01*
X4211Y1285D01*
X4215Y1289D01*
X4222Y1292D01*
X4282Y1226D02*
X4208Y1198D01*
X4282Y1170D02*
X4208Y1198D01*
X4282Y1154D02*
Y1115D01*
X4253Y1136D01*
Y1126D01*
X4250Y1119D01*
X4246Y1115D01*
X4236Y1112D01*
X4229D01*
X4218Y1115D01*
X4211Y1122D01*
X4208Y1133D01*
Y1143D01*
X4211Y1154D01*
X4215Y1157D01*
X4222Y1161D01*
D16*
X7187Y1640D02*
D03*
M02*
