G04*
G04 #@! TF.GenerationSoftware,Altium Limited,Altium Designer,20.0.12 (288)*
G04*
G04 Layer_Color=16711935*
%FSLAX23Y23*%
%MOIN*%
G70*
G01*
G75*
%ADD14C,0.010*%
%ADD29C,0.050*%
%ADD30R,0.050X0.050*%
%ADD31R,0.061X0.061*%
%ADD32C,0.061*%
%ADD33C,0.067*%
%ADD34R,0.067X0.067*%
%ADD35C,0.079*%
%ADD36R,0.079X0.079*%
%ADD37C,0.063*%
%ADD38R,0.063X0.063*%
%ADD39C,0.087*%
%ADD40R,0.087X0.087*%
%ADD41O,0.091X0.173*%
%ADD42O,0.165X0.087*%
%ADD43C,0.058*%
D14*
X1600Y5000D02*
X7600D01*
Y1000D02*
Y5000D01*
X1600Y1000D02*
X7600D01*
X1600D02*
Y5000D01*
D29*
X5735Y2285D02*
D03*
Y2385D02*
D03*
Y2485D02*
D03*
Y2585D02*
D03*
Y2685D02*
D03*
Y2785D02*
D03*
Y2885D02*
D03*
Y2985D02*
D03*
Y3085D02*
D03*
X6070D02*
D03*
Y2985D02*
D03*
Y2885D02*
D03*
Y2785D02*
D03*
Y2685D02*
D03*
Y2585D02*
D03*
Y2485D02*
D03*
Y2385D02*
D03*
D30*
Y2285D02*
D03*
D31*
X7300Y1940D02*
D03*
D32*
Y2137D02*
D03*
D33*
X2700Y2800D02*
D03*
X4600Y2200D02*
D03*
Y2100D02*
D03*
Y2000D02*
D03*
Y2500D02*
D03*
Y2600D02*
D03*
Y2700D02*
D03*
Y2800D02*
D03*
Y2900D02*
D03*
X2800Y1600D02*
D03*
Y1700D02*
D03*
Y1800D02*
D03*
X4600Y1700D02*
D03*
Y1600D02*
D03*
Y1500D02*
D03*
X3900Y4500D02*
D03*
X3800D02*
D03*
X3700D02*
D03*
X3600D02*
D03*
X3500D02*
D03*
X3900Y3900D02*
D03*
X3800D02*
D03*
X3700D02*
D03*
X3600D02*
D03*
X5100Y4500D02*
D03*
X5000D02*
D03*
X4900D02*
D03*
X4800D02*
D03*
X4700D02*
D03*
X5100Y3900D02*
D03*
X5000D02*
D03*
X4900D02*
D03*
X4800D02*
D03*
X7100D02*
D03*
X7200D02*
D03*
X7300D02*
D03*
X7400D02*
D03*
X7000Y4500D02*
D03*
X7100D02*
D03*
X7200D02*
D03*
X7300D02*
D03*
X7400D02*
D03*
X5900Y3900D02*
D03*
X6000D02*
D03*
X6100D02*
D03*
X6200D02*
D03*
X5800Y4500D02*
D03*
X5900D02*
D03*
X6000D02*
D03*
X6100D02*
D03*
X6200D02*
D03*
X2000Y3500D02*
D03*
Y3400D02*
D03*
Y3300D02*
D03*
D34*
X2700Y2700D02*
D03*
X4600Y2300D02*
D03*
Y3000D02*
D03*
X2800Y1500D02*
D03*
X4600Y1800D02*
D03*
X3500Y3900D02*
D03*
X4700D02*
D03*
X7000D02*
D03*
X5800D02*
D03*
X2000Y3200D02*
D03*
D35*
X4100Y2200D02*
D03*
Y2100D02*
D03*
Y2300D02*
D03*
Y2400D02*
D03*
Y2500D02*
D03*
Y2600D02*
D03*
Y2700D02*
D03*
Y2800D02*
D03*
Y2900D02*
D03*
Y3000D02*
D03*
Y2000D02*
D03*
Y1900D02*
D03*
Y1800D02*
D03*
Y1700D02*
D03*
Y1600D02*
D03*
Y1500D02*
D03*
Y1400D02*
D03*
Y1300D02*
D03*
Y1200D02*
D03*
X3400Y2200D02*
D03*
Y2100D02*
D03*
Y2300D02*
D03*
Y2400D02*
D03*
Y2500D02*
D03*
Y2600D02*
D03*
Y2700D02*
D03*
Y2800D02*
D03*
Y2900D02*
D03*
Y3000D02*
D03*
Y2000D02*
D03*
Y1900D02*
D03*
Y1800D02*
D03*
Y1700D02*
D03*
Y1600D02*
D03*
Y1500D02*
D03*
Y1400D02*
D03*
Y1300D02*
D03*
Y1200D02*
D03*
D36*
X4100Y3100D02*
D03*
X3400D02*
D03*
D37*
X2500Y1200D02*
D03*
X2100D02*
D03*
X2500Y3800D02*
D03*
Y3900D02*
D03*
Y4000D02*
D03*
Y4100D02*
D03*
Y4200D02*
D03*
Y4300D02*
D03*
Y4400D02*
D03*
Y4500D02*
D03*
Y4600D02*
D03*
X2200Y3800D02*
D03*
Y3900D02*
D03*
Y4000D02*
D03*
Y4100D02*
D03*
Y4200D02*
D03*
Y4300D02*
D03*
Y4400D02*
D03*
Y4500D02*
D03*
D38*
Y4600D02*
D03*
D39*
X6888Y1640D02*
D03*
D40*
X7300D02*
D03*
D41*
X5157Y1445D02*
D03*
D42*
X5248Y1236D02*
D03*
X5393Y1335D02*
D03*
D43*
X6621Y3539D02*
D03*
X3120Y4440D02*
D03*
X5306Y3680D02*
D03*
X5195Y3750D02*
D03*
X3160Y4760D02*
D03*
X6554Y3708D02*
D03*
X5676Y3557D02*
D03*
X5680Y3640D02*
D03*
X5240Y4040D02*
D03*
X4200Y3726D02*
D03*
X1927Y2300D02*
D03*
X1884Y2200D02*
D03*
X5377Y3696D02*
D03*
X3137Y4541D02*
D03*
X4368Y4604D02*
D03*
X4304Y3900D02*
D03*
X5363Y4469D02*
D03*
X5851Y4749D02*
D03*
X6848Y4152D02*
D03*
X4592Y4468D02*
D03*
X4526Y3961D02*
D03*
X4263Y4687D02*
D03*
X3050Y3900D02*
D03*
X3171Y3965D02*
D03*
X3800Y4218D02*
D03*
X3723Y3570D02*
D03*
X4248Y3672D02*
D03*
X4451Y4074D02*
D03*
X3853Y3550D02*
D03*
X5609Y3396D02*
D03*
X5791Y3232D02*
D03*
X3663Y3626D02*
D03*
X3255Y2100D02*
D03*
X5141Y3222D02*
D03*
M02*
