G04*
G04 #@! TF.GenerationSoftware,Altium Limited,Altium Designer,20.0.12 (288)*
G04*
G04 Layer_Color=65535*
%FSLAX25Y25*%
%MOIN*%
G70*
G01*
G75*
%ADD10C,0.00984*%
%ADD11C,0.00787*%
%ADD12C,0.02362*%
%ADD13C,0.00500*%
%ADD14C,0.01000*%
%ADD15C,0.00781*%
%ADD16R,0.03150X0.11024*%
D10*
X642724Y181000D02*
G03*
X642724Y181000I-492J0D01*
G01*
X220492Y464921D02*
G03*
X220492Y464921I-492J0D01*
G01*
X350492Y380236D02*
G03*
X350492Y380236I-492J0D01*
G01*
X470492D02*
G03*
X470492Y380236I-492J0D01*
G01*
X700492D02*
G03*
X700492Y380236I-492J0D01*
G01*
X580492D02*
G03*
X580492Y380236I-492J0D01*
G01*
D11*
X611469Y228500D02*
G03*
X611469Y228500I-394J0D01*
G01*
X734232Y197203D02*
G03*
X733274Y211003I-4232J6640D01*
G01*
X726726D02*
G03*
X725768Y197203I3274J-7161D01*
G01*
X410920Y321693D02*
G03*
X410920Y321693I-880J0D01*
G01*
X232500Y465866D02*
G03*
X237500Y465866I2500J0D01*
G01*
X607528Y167417D02*
X648472D01*
X607528Y162299D02*
Y167417D01*
X648472Y162299D02*
Y167417D01*
X302756Y437933D02*
X303543D01*
X302756Y442067D02*
X303543D01*
X532756Y437933D02*
X533543D01*
X532756Y442067D02*
X533543D01*
X532756Y357933D02*
X533543D01*
X532756Y362067D02*
X533543D01*
X652756Y357933D02*
X653543D01*
X652756Y362067D02*
X653543D01*
X265000Y265000D02*
Y285000D01*
Y265000D02*
X275000D01*
Y285000D01*
X265000D02*
X275000D01*
X455000Y195000D02*
X465000D01*
X455000D02*
Y235000D01*
X465000Y195000D02*
Y235000D01*
X455000D02*
X465000D01*
X455000Y245000D02*
Y305000D01*
X465000Y245000D02*
Y305000D01*
X455000D02*
X465000D01*
X455000Y245000D02*
X465000D01*
X622067Y346457D02*
Y347244D01*
X617933Y346457D02*
Y347244D01*
X732067Y346457D02*
Y347244D01*
X727933Y346457D02*
Y347244D01*
X402067Y346457D02*
Y347244D01*
X397933Y346457D02*
Y347244D01*
X422756Y477933D02*
X423543D01*
X422756Y482067D02*
X423543D01*
X302756Y457933D02*
X303543D01*
X302756Y462067D02*
X303543D01*
X302756Y417933D02*
X303543D01*
X302756Y422067D02*
X303543D01*
X301457Y397933D02*
X302244D01*
X301457Y402067D02*
X302244D01*
X302756Y482067D02*
X303543D01*
X302756Y477933D02*
X303543D01*
X302756Y362067D02*
X303543D01*
X302756Y357933D02*
X303543D01*
X242000Y120000D02*
X246000D01*
X214000D02*
X218000D01*
Y116000D02*
X242000D01*
Y124000D01*
X218000D02*
X242000D01*
X218000Y116000D02*
Y124000D01*
X275000Y185000D02*
X285000D01*
Y145000D02*
Y185000D01*
X275000Y145000D02*
Y185000D01*
Y145000D02*
X285000D01*
X455000D02*
X465000D01*
X455000D02*
Y185000D01*
X465000Y145000D02*
Y185000D01*
X455000D02*
X465000D01*
X302756Y377933D02*
X303543D01*
X302756Y382067D02*
X303543D01*
X224370Y374134D02*
X245630D01*
X237500Y465866D02*
X245630D01*
X224370D02*
X232500D01*
X245630Y374134D02*
Y465866D01*
X224370Y374134D02*
Y465866D01*
X512067Y346457D02*
Y347244D01*
X507933Y346457D02*
Y347244D01*
X344803Y382795D02*
X395197D01*
Y457205D01*
X344803D02*
X395197D01*
X344803Y382795D02*
Y457205D01*
X464803Y382795D02*
X515197D01*
Y457205D01*
X464803D02*
X515197D01*
X464803Y382795D02*
Y457205D01*
X422756Y357933D02*
X423543D01*
X422756Y362067D02*
X423543D01*
X422756Y377933D02*
X423543D01*
X422756Y382067D02*
X423543D01*
X422756Y417933D02*
X423543D01*
X422756Y422067D02*
X423543D01*
X422756Y457933D02*
X423543D01*
X422756Y462067D02*
X423543D01*
X422756Y437933D02*
X423543D01*
X422756Y442067D02*
X423543D01*
X532756Y377933D02*
X533543D01*
X532756Y382067D02*
X533543D01*
X532756Y397933D02*
X533543D01*
X532756Y402067D02*
X533543D01*
X532756Y417933D02*
X533543D01*
X532756Y422067D02*
X533543D01*
X532756Y457933D02*
X533543D01*
X532756Y462067D02*
X533543D01*
X422756Y397933D02*
X423543D01*
X422756Y402067D02*
X423543D01*
X694803Y382795D02*
Y457205D01*
X745197D01*
Y382795D02*
Y457205D01*
X694803Y382795D02*
X745197D01*
X574803D02*
Y457205D01*
X625197D01*
Y382795D02*
Y457205D01*
X574803Y382795D02*
X625197D01*
X652756Y482067D02*
X653543D01*
X652756Y477933D02*
X653543D01*
X532756Y482067D02*
X533543D01*
X532756Y477933D02*
X533543D01*
X652756Y462067D02*
X653543D01*
X652756Y457933D02*
X653543D01*
X652756Y442067D02*
X653543D01*
X652756Y437933D02*
X653543D01*
X652756Y417933D02*
X653543D01*
X652756Y422067D02*
X653543D01*
X195000Y315000D02*
X205000D01*
X195000D02*
Y355000D01*
X205000Y315000D02*
Y355000D01*
X195000D02*
X205000D01*
X652756Y402067D02*
X653543D01*
X652756Y397933D02*
X653543D01*
X652756Y382067D02*
X653543D01*
X652756Y377933D02*
X653543D01*
X698976Y158488D02*
Y169512D01*
X719842D01*
X698976Y158488D02*
X719842D01*
D12*
X229488Y461929D02*
G03*
X229488Y461929I-1181J0D01*
G01*
D13*
X576291Y314248D02*
X604244D01*
X576291Y222752D02*
X604244D01*
X414961Y112638D02*
Y317362D01*
X335039Y112638D02*
X414961D01*
X335039D02*
Y317362D01*
X414961D01*
X511783Y161035D02*
X547217D01*
X511783Y151587D02*
Y161035D01*
X547217Y136232D02*
Y161035D01*
Y118909D02*
Y129933D01*
X530681Y118909D02*
X547217D01*
X511783D02*
Y137020D01*
Y118909D02*
X519657D01*
D14*
X589502Y182999D02*
X591502D01*
X590502D01*
Y177001D01*
X589502D01*
X591502D01*
X598499Y181999D02*
X597500Y182999D01*
X595500D01*
X594500Y181999D01*
Y178001D01*
X595500Y177001D01*
X597500D01*
X598499Y178001D01*
X600498Y177001D02*
X602498D01*
X601498D01*
Y182999D01*
X600498Y181999D01*
X295002Y445001D02*
Y450999D01*
X298001D01*
X299000Y449999D01*
Y448000D01*
X298001Y447000D01*
X295002D01*
X297001D02*
X299000Y445001D01*
X301000Y450999D02*
X304998D01*
Y449999D01*
X301000Y446001D01*
Y445001D01*
X661000Y309000D02*
X662999D01*
X662000D01*
Y314998D01*
X661000Y313998D01*
X665998Y309000D02*
X667998D01*
X666998D01*
Y314998D01*
X665998Y313998D01*
X670997Y310000D02*
X671996Y309000D01*
X673996D01*
X674996Y310000D01*
Y313998D01*
X673996Y314998D01*
X671996D01*
X670997Y313998D01*
Y312999D01*
X671996Y311999D01*
X674996D01*
X676995Y313998D02*
X677994Y314998D01*
X679994D01*
X680994Y313998D01*
Y310000D01*
X679994Y309000D01*
X677994D01*
X676995Y310000D01*
Y313998D01*
X682993Y309000D02*
X684992D01*
X683993D01*
Y314998D01*
X682993Y313998D01*
X687991D02*
X688991Y314998D01*
X690990D01*
X691990Y313998D01*
Y312999D01*
X690990Y311999D01*
X691990Y310999D01*
Y310000D01*
X690990Y309000D01*
X688991D01*
X687991Y310000D01*
Y310999D01*
X688991Y311999D01*
X687991Y312999D01*
Y313998D01*
X688991Y311999D02*
X690990D01*
X693989Y310000D02*
X694989Y309000D01*
X696988D01*
X697988Y310000D01*
Y313998D01*
X696988Y314998D01*
X694989D01*
X693989Y313998D01*
Y312999D01*
X694989Y311999D01*
X697988D01*
X699987Y313998D02*
X700987Y314998D01*
X702986D01*
X703986Y313998D01*
Y312999D01*
X702986Y311999D01*
X701987D01*
X702986D01*
X703986Y310999D01*
Y310000D01*
X702986Y309000D01*
X700987D01*
X699987Y310000D01*
X520642Y141587D02*
X522308D01*
X521475D01*
Y146585D01*
X520642Y145752D01*
X540445Y127051D02*
X541278Y127884D01*
X542944D01*
X543777Y127051D01*
Y126218D01*
X542944Y125385D01*
X542111D01*
X542944D01*
X543777Y124552D01*
Y123719D01*
X542944Y122886D01*
X541278D01*
X540445Y123719D01*
X525470Y129657D02*
X522138D01*
X525470Y132990D01*
Y133823D01*
X524637Y134656D01*
X522971D01*
X522138Y133823D01*
X381999Y215511D02*
Y213512D01*
X381000Y212512D01*
X379000D01*
X378001Y213512D01*
Y215511D01*
X379000Y216511D01*
X380000D01*
Y212512D01*
X381999Y218510D02*
Y221509D01*
X381000Y222509D01*
X380000Y221509D01*
Y219510D01*
X379000Y218510D01*
X378001Y219510D01*
Y222509D01*
X383999Y224508D02*
X378001D01*
Y227507D01*
X379000Y228507D01*
X381000D01*
X381999Y227507D01*
Y224508D01*
X377001Y230506D02*
X376001Y231506D01*
Y233505D01*
X377001Y234505D01*
X378001D01*
X379000Y233505D01*
Y232506D01*
Y233505D01*
X380000Y234505D01*
X381000D01*
X381999Y233505D01*
Y231506D01*
X381000Y230506D01*
X381999Y240503D02*
Y236504D01*
X378001Y240503D01*
X377001D01*
X376001Y239503D01*
Y237504D01*
X377001Y236504D01*
X379000Y242502D02*
Y246501D01*
X383999Y248500D02*
X378001D01*
Y251500D01*
X379000Y252499D01*
X381000D01*
X381999Y251500D01*
Y248500D01*
Y254499D02*
Y256498D01*
Y255498D01*
X378001D01*
Y254499D01*
Y263496D02*
Y260497D01*
X379000Y259497D01*
X381000D01*
X381999Y260497D01*
Y263496D01*
Y266495D02*
Y268494D01*
X381000Y269494D01*
X379000D01*
X378001Y268494D01*
Y266495D01*
X379000Y265495D01*
X381000D01*
X381999Y266495D01*
X379000Y271493D02*
Y275492D01*
X376001Y281490D02*
X381999D01*
Y278491D01*
X381000Y277491D01*
X379000D01*
X378001Y278491D01*
Y281490D01*
X381999Y286488D02*
X376001D01*
X379000Y283489D01*
Y287488D01*
X222502Y482999D02*
X224502D01*
X223502D01*
Y477001D01*
X222502D01*
X224502D01*
X231500Y481999D02*
X230500Y482999D01*
X228501D01*
X227501Y481999D01*
Y478001D01*
X228501Y477001D01*
X230500D01*
X231500Y478001D01*
X237498Y477001D02*
X233499D01*
X237498Y481000D01*
Y481999D01*
X236498Y482999D01*
X234499D01*
X233499Y481999D01*
X612003Y333001D02*
Y338999D01*
X615002D01*
X616001Y337999D01*
Y336000D01*
X615002Y335000D01*
X612003D01*
X614002D02*
X616001Y333001D01*
X618001Y337999D02*
X619000Y338999D01*
X621000D01*
X621999Y337999D01*
Y337000D01*
X621000Y336000D01*
X620000D01*
X621000D01*
X621999Y335000D01*
Y334001D01*
X621000Y333001D01*
X619000D01*
X618001Y334001D01*
X627997Y338999D02*
X625998Y337999D01*
X623999Y336000D01*
Y334001D01*
X624998Y333001D01*
X626998D01*
X627997Y334001D01*
Y335000D01*
X626998Y336000D01*
X623999D01*
X544003Y369001D02*
Y374999D01*
X547002D01*
X548001Y373999D01*
Y372000D01*
X547002Y371000D01*
X544003D01*
X546002D02*
X548001Y369001D01*
X550001Y373999D02*
X551000Y374999D01*
X553000D01*
X553999Y373999D01*
Y373000D01*
X553000Y372000D01*
X552000D01*
X553000D01*
X553999Y371000D01*
Y370001D01*
X553000Y369001D01*
X551000D01*
X550001Y370001D01*
X559997Y374999D02*
X555999D01*
Y372000D01*
X557998Y373000D01*
X558998D01*
X559997Y372000D01*
Y370001D01*
X558998Y369001D01*
X556998D01*
X555999Y370001D01*
X532003Y385001D02*
Y390999D01*
X535002D01*
X536001Y389999D01*
Y388000D01*
X535002Y387000D01*
X532003D01*
X534002D02*
X536001Y385001D01*
X538001Y389999D02*
X539000Y390999D01*
X541000D01*
X541999Y389999D01*
Y389000D01*
X541000Y388000D01*
X540000D01*
X541000D01*
X541999Y387000D01*
Y386001D01*
X541000Y385001D01*
X539000D01*
X538001Y386001D01*
X546998Y385001D02*
Y390999D01*
X543999Y388000D01*
X547997D01*
X532003Y405001D02*
Y410999D01*
X535002D01*
X536001Y409999D01*
Y408000D01*
X535002Y407000D01*
X532003D01*
X534002D02*
X536001Y405001D01*
X538001Y409999D02*
X539000Y410999D01*
X541000D01*
X541999Y409999D01*
Y409000D01*
X541000Y408000D01*
X540000D01*
X541000D01*
X541999Y407000D01*
Y406001D01*
X541000Y405001D01*
X539000D01*
X538001Y406001D01*
X543999Y409999D02*
X544998Y410999D01*
X546998D01*
X547997Y409999D01*
Y409000D01*
X546998Y408000D01*
X545998D01*
X546998D01*
X547997Y407000D01*
Y406001D01*
X546998Y405001D01*
X544998D01*
X543999Y406001D01*
X532003Y425001D02*
Y430999D01*
X535002D01*
X536001Y429999D01*
Y428000D01*
X535002Y427000D01*
X532003D01*
X534002D02*
X536001Y425001D01*
X538001Y429999D02*
X539000Y430999D01*
X541000D01*
X541999Y429999D01*
Y429000D01*
X541000Y428000D01*
X540000D01*
X541000D01*
X541999Y427000D01*
Y426001D01*
X541000Y425001D01*
X539000D01*
X538001Y426001D01*
X547997Y425001D02*
X543999D01*
X547997Y429000D01*
Y429999D01*
X546998Y430999D01*
X544998D01*
X543999Y429999D01*
X541002Y445001D02*
Y450999D01*
X544001D01*
X545001Y449999D01*
Y448000D01*
X544001Y447000D01*
X541002D01*
X543002D02*
X545001Y445001D01*
X547000Y449999D02*
X548000Y450999D01*
X549999D01*
X550999Y449999D01*
Y449000D01*
X549999Y448000D01*
X549000D01*
X549999D01*
X550999Y447000D01*
Y446001D01*
X549999Y445001D01*
X548000D01*
X547000Y446001D01*
X552998Y445001D02*
X554998D01*
X553998D01*
Y450999D01*
X552998Y449999D01*
X528900Y466200D02*
Y472198D01*
X531899D01*
X532899Y471198D01*
Y469199D01*
X531899Y468199D01*
X528900D01*
X530899D02*
X532899Y466200D01*
X534898Y471198D02*
X535898Y472198D01*
X537897D01*
X538897Y471198D01*
Y470199D01*
X537897Y469199D01*
X536897D01*
X537897D01*
X538897Y468199D01*
Y467200D01*
X537897Y466200D01*
X535898D01*
X534898Y467200D01*
X540896Y471198D02*
X541896Y472198D01*
X543895D01*
X544895Y471198D01*
Y467200D01*
X543895Y466200D01*
X541896D01*
X540896Y467200D01*
Y471198D01*
X528900Y486200D02*
Y492198D01*
X531899D01*
X532899Y491198D01*
Y489199D01*
X531899Y488199D01*
X528900D01*
X530899D02*
X532899Y486200D01*
X538897D02*
X534898D01*
X538897Y490199D01*
Y491198D01*
X537897Y492198D01*
X535898D01*
X534898Y491198D01*
X540896Y487200D02*
X541896Y486200D01*
X543895D01*
X544895Y487200D01*
Y491198D01*
X543895Y492198D01*
X541896D01*
X540896Y491198D01*
Y490199D01*
X541896Y489199D01*
X544895D01*
X704003Y333001D02*
Y338999D01*
X707002D01*
X708001Y337999D01*
Y336000D01*
X707002Y335000D01*
X704003D01*
X706002D02*
X708001Y333001D01*
X713999D02*
X710001D01*
X713999Y337000D01*
Y337999D01*
X713000Y338999D01*
X711000D01*
X710001Y337999D01*
X715999D02*
X716998Y338999D01*
X718998D01*
X719997Y337999D01*
Y337000D01*
X718998Y336000D01*
X719997Y335000D01*
Y334001D01*
X718998Y333001D01*
X716998D01*
X715999Y334001D01*
Y335000D01*
X716998Y336000D01*
X715999Y337000D01*
Y337999D01*
X716998Y336000D02*
X718998D01*
X632003Y365001D02*
Y370999D01*
X635002D01*
X636001Y369999D01*
Y368000D01*
X635002Y367000D01*
X632003D01*
X634002D02*
X636001Y365001D01*
X641999D02*
X638001D01*
X641999Y369000D01*
Y369999D01*
X641000Y370999D01*
X639000D01*
X638001Y369999D01*
X643999Y370999D02*
X647997D01*
Y369999D01*
X643999Y366001D01*
Y365001D01*
X648900Y386200D02*
Y392198D01*
X651899D01*
X652899Y391198D01*
Y389199D01*
X651899Y388199D01*
X648900D01*
X650899D02*
X652899Y386200D01*
X658897D02*
X654898D01*
X658897Y390199D01*
Y391198D01*
X657897Y392198D01*
X655898D01*
X654898Y391198D01*
X664895Y392198D02*
X662895Y391198D01*
X660896Y389199D01*
Y387200D01*
X661896Y386200D01*
X663895D01*
X664895Y387200D01*
Y388199D01*
X663895Y389199D01*
X660896D01*
X648900Y406200D02*
Y412198D01*
X651899D01*
X652899Y411198D01*
Y409199D01*
X651899Y408199D01*
X648900D01*
X650899D02*
X652899Y406200D01*
X658897D02*
X654898D01*
X658897Y410199D01*
Y411198D01*
X657897Y412198D01*
X655898D01*
X654898Y411198D01*
X664895Y412198D02*
X660896D01*
Y409199D01*
X662895Y410199D01*
X663895D01*
X664895Y409199D01*
Y407200D01*
X663895Y406200D01*
X661896D01*
X660896Y407200D01*
X648900Y426200D02*
Y432198D01*
X651899D01*
X652899Y431198D01*
Y429199D01*
X651899Y428199D01*
X648900D01*
X650899D02*
X652899Y426200D01*
X658897D02*
X654898D01*
X658897Y430199D01*
Y431198D01*
X657897Y432198D01*
X655898D01*
X654898Y431198D01*
X663895Y426200D02*
Y432198D01*
X660896Y429199D01*
X664895D01*
X648900Y446200D02*
Y452198D01*
X651899D01*
X652899Y451198D01*
Y449199D01*
X651899Y448199D01*
X648900D01*
X650899D02*
X652899Y446200D01*
X658897D02*
X654898D01*
X658897Y450199D01*
Y451198D01*
X657897Y452198D01*
X655898D01*
X654898Y451198D01*
X660896D02*
X661896Y452198D01*
X663895D01*
X664895Y451198D01*
Y450199D01*
X663895Y449199D01*
X662895D01*
X663895D01*
X664895Y448199D01*
Y447200D01*
X663895Y446200D01*
X661896D01*
X660896Y447200D01*
X648900Y466200D02*
Y472198D01*
X651899D01*
X652899Y471198D01*
Y469199D01*
X651899Y468199D01*
X648900D01*
X650899D02*
X652899Y466200D01*
X658897D02*
X654898D01*
X658897Y470199D01*
Y471198D01*
X657897Y472198D01*
X655898D01*
X654898Y471198D01*
X664895Y466200D02*
X660896D01*
X664895Y470199D01*
Y471198D01*
X663895Y472198D01*
X661896D01*
X660896Y471198D01*
X648900Y486200D02*
Y492198D01*
X651899D01*
X652899Y491198D01*
Y489199D01*
X651899Y488199D01*
X648900D01*
X650899D02*
X652899Y486200D01*
X658897D02*
X654898D01*
X658897Y490199D01*
Y491198D01*
X657897Y492198D01*
X655898D01*
X654898Y491198D01*
X660896Y486200D02*
X662895D01*
X661896D01*
Y492198D01*
X660896Y491198D01*
X512003Y333001D02*
Y338999D01*
X515002D01*
X516001Y337999D01*
Y336000D01*
X515002Y335000D01*
X512003D01*
X514002D02*
X516001Y333001D01*
X521999D02*
X518001D01*
X521999Y337000D01*
Y337999D01*
X521000Y338999D01*
X519000D01*
X518001Y337999D01*
X523999D02*
X524998Y338999D01*
X526998D01*
X527997Y337999D01*
Y334001D01*
X526998Y333001D01*
X524998D01*
X523999Y334001D01*
Y337999D01*
X428502Y369001D02*
Y374999D01*
X431501D01*
X432501Y373999D01*
Y372000D01*
X431501Y371000D01*
X428502D01*
X430502D02*
X432501Y369001D01*
X434501D02*
X436500D01*
X435500D01*
Y374999D01*
X434501Y373999D01*
X439499Y370001D02*
X440498Y369001D01*
X442498D01*
X443498Y370001D01*
Y373999D01*
X442498Y374999D01*
X440498D01*
X439499Y373999D01*
Y373000D01*
X440498Y372000D01*
X443498D01*
X408502Y389001D02*
Y394999D01*
X411502D01*
X412501Y393999D01*
Y392000D01*
X411502Y391000D01*
X408502D01*
X410502D02*
X412501Y389001D01*
X414501D02*
X416500D01*
X415500D01*
Y394999D01*
X414501Y393999D01*
X419499D02*
X420499Y394999D01*
X422498D01*
X423498Y393999D01*
Y393000D01*
X422498Y392000D01*
X423498Y391000D01*
Y390001D01*
X422498Y389001D01*
X420499D01*
X419499Y390001D01*
Y391000D01*
X420499Y392000D01*
X419499Y393000D01*
Y393999D01*
X420499Y392000D02*
X422498D01*
X417502Y407001D02*
Y412999D01*
X420502D01*
X421501Y411999D01*
Y410000D01*
X420502Y409000D01*
X417502D01*
X419502D02*
X421501Y407001D01*
X423500D02*
X425500D01*
X424500D01*
Y412999D01*
X423500Y411999D01*
X428499Y412999D02*
X432498D01*
Y411999D01*
X428499Y408001D01*
Y407001D01*
X418802Y427001D02*
Y432999D01*
X421801D01*
X422800Y431999D01*
Y430000D01*
X421801Y429000D01*
X418802D01*
X420801D02*
X422800Y427001D01*
X424800D02*
X426799D01*
X425799D01*
Y432999D01*
X424800Y431999D01*
X433797Y432999D02*
X431797Y431999D01*
X429798Y430000D01*
Y428001D01*
X430798Y427001D01*
X432797D01*
X433797Y428001D01*
Y429000D01*
X432797Y430000D01*
X429798D01*
X418802Y447001D02*
Y452999D01*
X421801D01*
X422800Y451999D01*
Y450000D01*
X421801Y449000D01*
X418802D01*
X420801D02*
X422800Y447001D01*
X424800D02*
X426799D01*
X425799D01*
Y452999D01*
X424800Y451999D01*
X433797Y452999D02*
X429798D01*
Y450000D01*
X431797Y451000D01*
X432797D01*
X433797Y450000D01*
Y448001D01*
X432797Y447001D01*
X430798D01*
X429798Y448001D01*
X404502Y465001D02*
Y470999D01*
X407502D01*
X408501Y469999D01*
Y468000D01*
X407502Y467000D01*
X404502D01*
X406502D02*
X408501Y465001D01*
X410500D02*
X412500D01*
X411500D01*
Y470999D01*
X410500Y469999D01*
X418498Y465001D02*
Y470999D01*
X415499Y468000D01*
X419498D01*
X422502Y487001D02*
Y492999D01*
X425501D01*
X426501Y491999D01*
Y490000D01*
X425501Y489000D01*
X422502D01*
X424502D02*
X426501Y487001D01*
X428501D02*
X430500D01*
X429500D01*
Y492999D01*
X428501Y491999D01*
X433499D02*
X434499Y492999D01*
X436498D01*
X437498Y491999D01*
Y491000D01*
X436498Y490000D01*
X435498D01*
X436498D01*
X437498Y489000D01*
Y488001D01*
X436498Y487001D01*
X434499D01*
X433499Y488001D01*
X404502Y333001D02*
Y338999D01*
X407502D01*
X408501Y337999D01*
Y336000D01*
X407502Y335000D01*
X404502D01*
X406502D02*
X408501Y333001D01*
X410500D02*
X412500D01*
X411500D01*
Y338999D01*
X410500Y337999D01*
X419498Y333001D02*
X415499D01*
X419498Y337000D01*
Y337999D01*
X418498Y338999D01*
X416499D01*
X415499Y337999D01*
X293502Y369001D02*
Y374999D01*
X296501D01*
X297501Y373999D01*
Y372000D01*
X296501Y371000D01*
X293502D01*
X295501D02*
X297501Y369001D01*
X299500D02*
X301500D01*
X300500D01*
Y374999D01*
X299500Y373999D01*
X304499Y369001D02*
X306498D01*
X305498D01*
Y374999D01*
X304499Y373999D01*
X284502Y385001D02*
Y390999D01*
X287502D01*
X288501Y389999D01*
Y388000D01*
X287502Y387000D01*
X284502D01*
X286502D02*
X288501Y385001D01*
X290500D02*
X292500D01*
X291500D01*
Y390999D01*
X290500Y389999D01*
X295499D02*
X296498Y390999D01*
X298498D01*
X299498Y389999D01*
Y386001D01*
X298498Y385001D01*
X296498D01*
X295499Y386001D01*
Y389999D01*
X297600Y406200D02*
Y412198D01*
X300599D01*
X301599Y411198D01*
Y409199D01*
X300599Y408199D01*
X297600D01*
X299599D02*
X301599Y406200D01*
X303598Y407200D02*
X304598Y406200D01*
X306597D01*
X307597Y407200D01*
Y411198D01*
X306597Y412198D01*
X304598D01*
X303598Y411198D01*
Y410199D01*
X304598Y409199D01*
X307597D01*
X298900Y426200D02*
Y432198D01*
X301899D01*
X302899Y431198D01*
Y429199D01*
X301899Y428199D01*
X298900D01*
X300899D02*
X302899Y426200D01*
X304898Y431198D02*
X305898Y432198D01*
X307897D01*
X308897Y431198D01*
Y430199D01*
X307897Y429199D01*
X308897Y428199D01*
Y427200D01*
X307897Y426200D01*
X305898D01*
X304898Y427200D01*
Y428199D01*
X305898Y429199D01*
X304898Y430199D01*
Y431198D01*
X305898Y429199D02*
X307897D01*
X299002Y465001D02*
Y470999D01*
X302001D01*
X303000Y469999D01*
Y468000D01*
X302001Y467000D01*
X299002D01*
X301001D02*
X303000Y465001D01*
X308998Y470999D02*
X306999Y469999D01*
X305000Y468000D01*
Y466001D01*
X305999Y465001D01*
X307999D01*
X308998Y466001D01*
Y467000D01*
X307999Y468000D01*
X305000D01*
X299002Y489001D02*
Y494999D01*
X302001D01*
X303000Y493999D01*
Y492000D01*
X302001Y491000D01*
X299002D01*
X301001D02*
X303000Y489001D01*
X308998Y494999D02*
X305000D01*
Y492000D01*
X306999Y493000D01*
X307999D01*
X308998Y492000D01*
Y490001D01*
X307999Y489001D01*
X305999D01*
X305000Y490001D01*
X246001Y107001D02*
Y112999D01*
X249000D01*
X250000Y111999D01*
Y110000D01*
X249000Y109000D01*
X246001D01*
X248001D02*
X250000Y107001D01*
X251999D02*
X253999D01*
X252999D01*
Y112999D01*
X251999Y111999D01*
X556502Y321001D02*
Y325000D01*
X557502D01*
X558502Y324000D01*
Y321001D01*
Y324000D01*
X559502Y325000D01*
X560501Y324000D01*
Y321001D01*
X562500D02*
X564500D01*
X563500D01*
Y325000D01*
X562500D01*
X571498D02*
X568499D01*
X567499Y324000D01*
Y322001D01*
X568499Y321001D01*
X571498D01*
X282003Y302999D02*
Y297001D01*
Y299000D01*
X286001Y302999D01*
X283002Y300000D01*
X286001Y297001D01*
X291999D02*
X288001D01*
X291999Y301000D01*
Y301999D01*
X291000Y302999D01*
X289000D01*
X288001Y301999D01*
X297997Y297001D02*
X293999D01*
X297997Y301000D01*
Y301999D01*
X296998Y302999D01*
X294998D01*
X293999Y301999D01*
X195650Y364348D02*
Y358350D01*
Y360349D01*
X199649Y364348D01*
X196650Y361349D01*
X199649Y358350D01*
X201648D02*
X203647D01*
X202648D01*
Y364348D01*
X201648Y363348D01*
X206646Y358350D02*
X208646D01*
X207646D01*
Y364348D01*
X206646Y363348D01*
X510800Y165000D02*
Y170998D01*
Y166999D02*
X513799Y168999D01*
X510800Y166999D02*
X513799Y165000D01*
X520797Y170998D02*
X518797Y169998D01*
X516798Y167999D01*
Y166000D01*
X517798Y165000D01*
X519797D01*
X520797Y166000D01*
Y166999D01*
X519797Y167999D01*
X516798D01*
X475002Y212999D02*
Y207001D01*
Y209000D01*
X479000Y212999D01*
X476001Y210000D01*
X479000Y207001D01*
X484998Y212999D02*
X481000D01*
Y210000D01*
X482999Y211000D01*
X483999D01*
X484998Y210000D01*
Y208001D01*
X483999Y207001D01*
X481999D01*
X481000Y208001D01*
X455002Y142999D02*
Y137001D01*
Y139000D01*
X459000Y142999D01*
X456001Y140000D01*
X459000Y137001D01*
X463999D02*
Y142999D01*
X461000Y140000D01*
X464998D01*
X275002Y132999D02*
Y127001D01*
Y129000D01*
X279000Y132999D01*
X276001Y130000D01*
X279000Y127001D01*
X281000Y131999D02*
X281999Y132999D01*
X283999D01*
X284998Y131999D01*
Y131000D01*
X283999Y130000D01*
X282999D01*
X283999D01*
X284998Y129000D01*
Y128001D01*
X283999Y127001D01*
X281999D01*
X281000Y128001D01*
X475002Y282999D02*
Y277001D01*
Y279000D01*
X479000Y282999D01*
X476001Y280000D01*
X479000Y277001D01*
X484998D02*
X481000D01*
X484998Y281000D01*
Y281999D01*
X483999Y282999D01*
X481999D01*
X481000Y281999D01*
X685509Y178898D02*
Y172900D01*
X688508D01*
X689508Y173900D01*
Y177898D01*
X688508Y178898D01*
X685509D01*
X691507Y172900D02*
X693507D01*
X692507D01*
Y178898D01*
X691507Y177898D01*
X229000Y361999D02*
X228001Y362999D01*
X226001D01*
X225002Y361999D01*
Y358001D01*
X226001Y357001D01*
X228001D01*
X229000Y358001D01*
X231000Y362999D02*
X234998D01*
Y361999D01*
X231000Y358001D01*
Y357001D01*
X499000Y301999D02*
X498001Y302999D01*
X496001D01*
X495002Y301999D01*
Y298001D01*
X496001Y297001D01*
X498001D01*
X499000Y298001D01*
X504998Y302999D02*
X502999Y301999D01*
X501000Y300000D01*
Y298001D01*
X501999Y297001D01*
X503999D01*
X504998Y298001D01*
Y299000D01*
X503999Y300000D01*
X501000D01*
X251000Y321999D02*
X250001Y322999D01*
X248001D01*
X247002Y321999D01*
Y318001D01*
X248001Y317001D01*
X250001D01*
X251000Y318001D01*
X256998Y322999D02*
X253000D01*
Y320000D01*
X254999Y321000D01*
X255999D01*
X256998Y320000D01*
Y318001D01*
X255999Y317001D01*
X253999D01*
X253000Y318001D01*
X499000Y311999D02*
X498001Y312999D01*
X496001D01*
X495002Y311999D01*
Y308001D01*
X496001Y307001D01*
X498001D01*
X499000Y308001D01*
X503999Y307001D02*
Y312999D01*
X501000Y310000D01*
X504998D01*
X588000Y117048D02*
X588999Y116048D01*
X590999D01*
X591998Y117048D01*
Y121046D01*
X590999Y122046D01*
X588999D01*
X588000Y121046D01*
X586000Y117048D02*
X585001Y116048D01*
X583001D01*
X582002Y117048D01*
Y118047D01*
X583001Y119047D01*
X584001D01*
X583001D01*
X582002Y120047D01*
Y121046D01*
X583001Y122046D01*
X585001D01*
X586000Y121046D01*
X691699Y224798D02*
X690699Y225798D01*
X688700D01*
X687700Y224798D01*
Y220800D01*
X688700Y219800D01*
X690699D01*
X691699Y220800D01*
X697697Y219800D02*
X693698D01*
X697697Y223799D01*
Y224798D01*
X696697Y225798D01*
X694698D01*
X693698Y224798D01*
X726699Y224741D02*
X725699Y225741D01*
X723700D01*
X722700Y224741D01*
Y220742D01*
X723700Y219742D01*
X725699D01*
X726699Y220742D01*
X728698Y219742D02*
X730697D01*
X729698D01*
Y225741D01*
X728698Y224741D01*
X160000Y500000D02*
X760000D01*
Y100000D02*
Y500000D01*
X160000Y100000D02*
X760000D01*
X160000D02*
Y500000D01*
D15*
X361839Y290781D02*
X369219D01*
X361839D02*
Y295350D01*
X365353Y290781D02*
Y293593D01*
X363596Y301465D02*
X362893Y301114D01*
X362190Y300411D01*
X361839Y299708D01*
Y298302D01*
X362190Y297599D01*
X362893Y296896D01*
X363596Y296545D01*
X364650Y296193D01*
X366407D01*
X367462Y296545D01*
X368164Y296896D01*
X368867Y297599D01*
X369219Y298302D01*
Y299708D01*
X368867Y300411D01*
X368164Y301114D01*
X367462Y301465D01*
X362893Y308459D02*
X362190Y307756D01*
X361839Y306702D01*
Y305296D01*
X362190Y304241D01*
X362893Y303539D01*
X363596D01*
X364299Y303890D01*
X364650Y304241D01*
X365002Y304944D01*
X365704Y307053D01*
X366056Y307756D01*
X366407Y308107D01*
X367110Y308459D01*
X368164D01*
X368867Y307756D01*
X369219Y306702D01*
Y305296D01*
X368867Y304241D01*
X368164Y303539D01*
X328162Y125002D02*
Y128516D01*
X324998Y128867D01*
X325350Y128516D01*
X325701Y127462D01*
Y126407D01*
X325350Y125353D01*
X324647Y124650D01*
X323593Y124299D01*
X322890D01*
X321836Y124650D01*
X321133Y125353D01*
X320781Y126407D01*
Y127462D01*
X321133Y128516D01*
X321484Y128867D01*
X322187Y129219D01*
X328162Y122647D02*
X320781Y119835D01*
X328162Y117024D02*
X320781Y119835D01*
X393162Y309219D02*
X385781D01*
X393162D02*
Y304650D01*
X389647Y309219D02*
Y306407D01*
X392107Y298886D02*
X392810Y299589D01*
X393162Y300644D01*
Y302049D01*
X392810Y303104D01*
X392107Y303807D01*
X391404D01*
X390701Y303455D01*
X390350Y303104D01*
X389999Y302401D01*
X389296Y300292D01*
X388944Y299589D01*
X388593Y299238D01*
X387890Y298886D01*
X386836D01*
X386133Y299589D01*
X385781Y300644D01*
Y302049D01*
X386133Y303104D01*
X386836Y303807D01*
X393162Y297235D02*
X385781D01*
X393162D02*
Y294775D01*
X392810Y293720D01*
X392107Y293017D01*
X391404Y292666D01*
X390350Y292314D01*
X388593D01*
X387538Y292666D01*
X386836Y293017D01*
X386133Y293720D01*
X385781Y294775D01*
Y297235D01*
X391756Y290663D02*
X392107Y289960D01*
X393162Y288905D01*
X385781D01*
X428161Y128516D02*
Y124650D01*
X425350Y126759D01*
Y125704D01*
X424999Y125002D01*
X424647Y124650D01*
X423593Y124299D01*
X422890D01*
X421836Y124650D01*
X421133Y125353D01*
X420781Y126407D01*
Y127462D01*
X421133Y128516D01*
X421484Y128867D01*
X422187Y129219D01*
X428161Y122647D02*
X420781Y119835D01*
X428161Y117024D02*
X420781Y119835D01*
X428161Y115372D02*
Y111506D01*
X425350Y113615D01*
Y112560D01*
X424999Y111857D01*
X424647Y111506D01*
X423593Y111155D01*
X422890D01*
X421836Y111506D01*
X421133Y112209D01*
X420781Y113263D01*
Y114318D01*
X421133Y115372D01*
X421484Y115723D01*
X422187Y116075D01*
D16*
X718660Y163998D02*
D03*
M02*
