M48
;Layer_Color=9474304
;FILE_FORMAT=2:3
INCH,LZ
;TYPE=PLATED
T2F00S00C0.028
T3F00S00C0.031
T5F00S00C0.033
T6F00S00C0.035
T7F00S00C0.047
%
T02
X05735Y02285
Y02385
Y02485
Y02585
Y02685
Y02785
Y02885
Y02985
Y03085
X0607
Y02985
Y02885
Y02785
Y02685
Y02585
Y02485
Y02385
Y02285
X03255Y021
X01884Y022
X01927Y023
X0305Y039
X0312Y0444
X03137Y04541
X03171Y03965
X03663Y03626
X03723Y0357
X03853Y0355
X04248Y03672
X042Y03726
X04304Y039
X04526Y03961
X04451Y04074
X04592Y04468
X04368Y04604
X04263Y04687
X038Y04218
X0524Y0404
X05195Y0375
X05306Y0368
X05377Y03696
X0568Y0364
X05676Y03557
X05609Y03396
X05791Y03232
X05141Y03222
X05363Y04469
X06848Y04152
X06554Y03708
X06621Y03539
X05851Y04749
X0316Y0476
T03
X073Y0194
Y02137
X025Y038
Y039
Y04
Y041
Y042
Y043
Y044
Y045
Y046
X022
Y045
Y044
Y043
Y042
Y041
Y04
Y039
Y038
T05
X021Y012
X025
T06
X028Y015
X046
Y016
Y017
Y018
Y02
Y021
Y022
Y023
Y025
Y026
Y027
Y028
Y029
Y03
X027Y028
Y027
X028Y018
Y017
Y016
X02Y032
Y033
Y034
Y035
X035Y039
X036
X037
X038
X039
Y045
X038
X037
X036
X035
X047
X048
X049
X05
X051
Y039
X05
X049
X048
X047
X058
X059
X06
X061
X062
Y045
X061
X06
X059
X058
X07
X071
X072
X073
X074
Y039
X073
X072
X071
X07
T07
X034Y012
Y013
Y014
Y015
X041
Y014
Y013
Y012
X06888Y0164
X073
X041Y016
Y017
Y018
Y019
Y02
Y021
Y022
Y023
Y024
Y025
Y026
Y027
Y028
Y029
Y03
Y031
X034
Y03
Y029
Y028
Y027
Y026
Y025
Y024
Y023
Y022
Y021
Y02
Y019
Y018
Y017
Y016
M30
